<?xml version="1.0" encoding="utf-8"?>
<!-- Generator: Adobe Illustrator 25.1.0, SVG Export Plug-In . SVG Version: 6.00 Build 0)  -->
<svg version="1.1" id="Layer_1" xmlns="http://www.w3.org/2000/svg" xmlns:xlink="http://www.w3.org/1999/xlink" x="0px" y="0px"
	 viewBox="0 0 671 437" style="enable-background:new 0 0 671 437;" xml:space="preserve">
<style type="text/css">
	.st0{fill:#E0F3F7;}
	.st1{opacity:0.1;fill:#0D90D3;enable-background:new    ;}
	.st2{fill:#F47739;}
	.st3{fill:#E99137;}
	.st4{opacity:0.5;}
	.st5{fill:#FFFFFF;}
	.st6{fill:#E1F1F6;}
	.st7{fill:#FBFDFF;}
	.st8{opacity:0.4;fill:#A8C4E5;enable-background:new    ;}
	.st9{fill:#0D90D3;}
	.st10{fill:#009432;}
	.st11{fill:#394958;}
	.st12{fill:#A3CB38;}
	.st13{fill:#316BE6;}
	.st14{fill:#3D607E;}
	.st15{fill:none;stroke:#FFFFFF;stroke-width:3.38;stroke-miterlimit:10;}
	.st16{fill:#0D0C33;}
	.st17{fill:none;stroke:#FFFFFF;stroke-width:3.349;stroke-miterlimit:10;}
	.st18{fill:#ED40B4;}
	.st19{fill:#EDF4FF;}
	.st20{fill:#F760D0;}
	.st21{fill:#F567D0;}
	.st22{fill:#1F60B3;}
	.st23{fill:none;stroke:#FFFFFF;stroke-width:3.646;stroke-linecap:round;stroke-linejoin:round;}
	.st24{fill:none;stroke:#FFFFFF;stroke-width:4.054;stroke-linecap:round;stroke-linejoin:round;}
	.st25{fill:#875963;}
	.st26{fill:#6E424C;}
	.st27{fill:#FFC2B0;}
	.st28{fill:#F5B433;}
	.st29{fill:#FFC248;}
	.st30{fill:#D48F05;}
	.st31{fill:#DE9D1B;}
	.st32{fill:#F08B9E;}
	.st33{fill:#86ABD9;}
	.st34{fill:#F5F9FF;}
	.st35{fill:#CDDFFA;}
	.st36{fill:#B0DBE6;}
	.st37{fill:#18BDF7;}
	.st38{fill:#EFA695;}
	.st39{fill:#C48B18;}
	.st40{fill:none;stroke:#9EA7AF;stroke-width:4.993;stroke-miterlimit:10;}
	.st41{fill:#EBF3FF;}
	.st42{fill:none;stroke:#FFFFFF;stroke-width:2.229;stroke-linecap:round;stroke-linejoin:round;}
	.st43{fill:none;stroke:#FFFFFF;stroke-width:3.048;stroke-linecap:round;stroke-linejoin:round;}
	.st44{fill:#F9B979;}
	.st45{fill:#F9AE64;}
	.st46{fill:#CE5A28;}
	.st47{fill:#DFE3F8;}
	.st48{fill:#FF5ECA;}
	.st49{fill:#E6F0FF;}
	.st50{fill:none;}
</style>
<path class="st0" d="M392.1,18.2c-1.5-1.1-3.3-1.8-5.3-1.8c-4.7,0-8.5,3.8-8.6,8.4c-4.8,1.8-8.2,6.5-8.2,12c0,6.5,4.8,11.9,11,12.7
	v0.1H425v0c6.1-0.4,11-5.5,11-11.8c0-6.1-4.5-11.1-10.3-11.7c0-0.4,0-0.7,0-1.1c0-9.4-7.8-17-17.5-17C401,8,394.8,12.2,392.1,18.2
	L392.1,18.2z"/>
<path class="st0" d="M294.2,38.7c-1.5-1.1-3.3-1.8-5.3-1.8c-4.7,0-8.5,3.8-8.6,8.4c-4.8,1.8-8.2,6.5-8.2,12c0,6.5,4.8,11.9,11,12.7
	v0.1h43.9v0c6.1-0.4,11-5.5,11-11.8c0-6.1-4.5-11.1-10.3-11.7c0-0.4,0-0.7,0-1.1c0-9.4-7.8-17-17.5-17
	C303.1,28.6,296.9,32.8,294.2,38.7L294.2,38.7z"/>
<g id="img-banner-google-my-business-experts-r1" transform="translate(-914.525 -165.632)">
	<g id="Group_104-inner" transform="translate(2868.217 1136.092)">
		<path id="Path_1" class="st1" d="M-1871.2-685c16.4,13.2,21.8,60,21.8,60s-76.6-19.2-93-32.4s-13.8-30.1,5.9-37.7
			S-1887.6-698.2-1871.2-685z"/>
		<g id="Group_2" transform="translate(-1904.515 -771.304)">
			<path id="Path_2" class="st2" d="M73.8,8.7l6.8,1.6l-12.2-7c-7.2-4.8-17.5-4.4-28.9,2.1C17.7,18,0,48.6,0,73.7
				s39.5,65.1,39.5,65.1l12.9,7.5L42.1,133C51,113.3,78.9,49.3,78.9,28.2C78.9,20,77,13.4,73.8,8.7z"/>
			<path id="Path_3" class="st3" d="M91.8,35.6c0,25.2-39.5,110.7-39.5,110.7s-39.5-40-39.5-65.1s17.7-55.8,39.5-68.3
				S91.8,10.5,91.8,35.6z"/>
			<g id="Group_1" transform="translate(12.93 7.13)" class="st4">
				<path id="Path_4" class="st5" d="M0,74.1c0-5.9,0.8-11.7,2.3-17.4C3,53.8,4,51,5,48.3c1-2.7,2.2-5.5,3.5-8.1
					c2.6-5.3,5.7-10.3,9.2-15c3.5-4.7,7.5-9.1,12-13c2.2-1.9,4.6-3.7,7.1-5.3c2.5-1.6,5.1-3,7.8-4.2c2.7-1.2,5.6-2,8.5-2.5
					c2.9-0.5,6-0.4,8.9,0.3l1.1,0.3c0.4,0.1,0.7,0.2,1.1,0.4l0.5,0.2l0.5,0.2c0.3,0.2,0.7,0.3,1,0.5c1.3,0.7,2.6,1.5,3.7,2.4
					c0.3,0.2,0.6,0.5,0.8,0.7l0.4,0.4c0.1,0.1,0.3,0.3,0.4,0.4l0.8,0.8l0.7,0.9l0.3,0.4l0.3,0.5l0.6,0.9l0.6,1l0.3,0.5l0.2,0.5
					c1.3,2.6,2.2,5.5,2.8,8.4c0.5,2.9,0.8,5.8,0.7,8.8c0-2.9-0.3-5.9-0.9-8.7c-0.6-2.9-1.6-5.6-2.9-8.2l-0.3-0.5l-0.3-0.5L74,9.7
					l-0.6-0.9L73,8.4l-0.3-0.4L72,7.1l-0.8-0.8C71.1,6.2,71,6,70.9,5.9l-0.4-0.4c-0.3-0.2-0.5-0.5-0.8-0.7C68.5,4,67.3,3.2,66,2.6
					c-0.3-0.2-0.7-0.3-1-0.4l-0.5-0.2l-0.5-0.2c-0.3-0.1-0.7-0.2-1-0.3l-1.1-0.2C61.5,1.1,61.2,1,60.8,1c-0.4-0.1-0.7-0.1-1.1-0.2
					c-0.7,0-1.4-0.1-2.2-0.1c-0.4,0-0.7,0-1.1,0l-1.1,0.1l-0.5,0l-0.5,0.1L53.2,1c-2.9,0.5-5.7,1.3-8.3,2.4
					c-2.7,1.2-5.2,2.5-7.7,4.1c-2.4,1.6-4.8,3.3-7,5.3c-4.4,3.8-8.4,8.1-11.9,12.8c-1.8,2.3-3.4,4.7-5,7.2s-3,5-4.3,7.6
					c-2.7,5.2-4.8,10.7-6.4,16.3C1.1,62.4,0.2,68.2,0,74.1z"/>
			</g>
		</g>
		
			<ellipse id="Ellipse_1" transform="matrix(0.5 -0.866 0.866 0.5 -308.5983 -1960.4838)" class="st6" cx="-1852.1" cy="-713" rx="34.9" ry="20.1"/>
		
			<ellipse id="Ellipse_2" transform="matrix(0.5 -0.866 0.866 0.5 -308.5838 -1952.9967)" class="st7" cx="-1845.7" cy="-709.3" rx="34.9" ry="20.1"/>
		<path id="Path_5" class="st8" d="M-1730.5-591.3c-5.7-3.4-14.6-4.6-22.3-3.3c-0.7-1.8-2.3-3.6-4.8-5.1c-7.7-4.6-21.1-5.4-30-1.8
			s-9.8,10.3-2.1,14.9c6.3,3.7,16.3,5,24.7,3.3c1,1.8,2.5,3.4,4.4,4.3c7.2,4.3,19.9,5.1,28.2,1.7S-1723.3-587-1730.5-591.3z"/>
		<path id="Path_6" class="st9" d="M-1746.8-588.2l5.6-6.9c1.2-0.7,2.6-1,4-1c0.6,0,1.1,0.5,1.2,1l0.2,1.2c0.4,1.8,0.3,2.1-0.8,2.8
			l-6.2,4.5c-1.1,0.8-2.5,1-3.8,0.6l-0.3-0.1C-1747.9-586.4-1747.9-587.4-1746.8-588.2z"/>
		<path id="Path_7" class="st1" d="M-1546.7-567.9l150.5-17.3l113.1-80.2l-136.1-74L-1546.7-567.9z"/>
		<g id="Group_4" transform="translate(-1414.369 -809.844)">
			<path id="Path_8" class="st5" d="M79.5,127.1c-2.8,0-5.7,0.4-8.4,1.2c-5.6-3.7-13.6-6.1-22.4-6.1c-17.1,0-31,8.8-31,19.7
				s13.9,19.7,31,19.7c11.4,0,21.4-3.9,26.8-9.7c1.3,0.2,2.7,0.3,4,0.3c10.9,0,19.8-5.6,19.8-12.6S90.4,127.1,79.5,127.1z"/>
			<path id="Path_9" class="st10" d="M76,62.7c0,11-10,23.7-22.6,23.7S28.2,76.2,28.2,65.2s10.2-20,22.8-20S76,51.7,76,62.7z"/>
			<path id="Path_10" class="st11" d="M52.7,153.2L52.7,153.2c-2.2,0-4-1.8-4-4V63.1c0-2.2,1.8-4,4-4l0,0c2.2,0,4,1.8,4,4v86.1
				C56.6,151.4,54.9,153.2,52.7,153.2z"/>
			<path id="Path_11" class="st10" d="M63.4,44c0,16-10.8,33-29,33S0,65,0,49.1s12.2-33.9,30.5-33.9S63.4,28.1,63.4,44z"/>
			<path id="Path_12" class="st10" d="M96.4,40.8c0,16-14.8,24.6-33,24.6s-33-12.9-33-28.9s14.8-28.9,33-28.9S96.4,24.9,96.4,40.8z"
				/>
			<g id="Group_3" transform="translate(48.879 79.292)">
				<path id="Path_13" class="st11" d="M4.8,23.3c13.5-2.6,26.2-8.4,37-17c3.9-3-1.6-8.5-5.4-5.4C26.5,8.5,15,13.6,2.8,15.9
					C-2.1,16.8,0,24.2,4.8,23.3L4.8,23.3z"/>
			</g>
			<path id="Path_14" class="st10" d="M108.1,82.7c0,11.2-10.4,20.3-23.1,20.3s-23.1-9.1-23.1-20.3s14.7-19.9,27.5-19.9
				S108.1,71.5,108.1,82.7z"/>
			<path id="Path_15" class="st10" d="M53.8,5.7c8.5,7.3,8.7,21,0.4,30.8s-21.9,11.7-30.4,4.4S18.2,16.7,26.5,7S45.3-1.6,53.8,5.7z"
				/>
			<path id="Path_16" class="st10" d="M102.2,94.7c0,7.6-7,16.4-15.7,16.4s-17.5-7-17.5-14.6s7.1-13.8,15.8-13.8
				S102.2,87.1,102.2,94.7z"/>
			
				<ellipse id="Ellipse_3" transform="matrix(0.269 -0.9631 0.9631 0.269 -2.5082 145.0467)" class="st12" cx="94.3" cy="74.2" rx="6.8" ry="10.1"/>
			
				<ellipse id="Ellipse_4" transform="matrix(0.218 -0.976 0.976 0.218 21.9293 49.6049)" class="st12" cx="41.9" cy="11.1" rx="6.8" ry="10.1"/>
			
				<ellipse id="Ellipse_5" transform="matrix(0.3621 -0.9322 0.9322 0.3621 16.1103 85.229)" class="st12" cx="70.3" cy="30.8" rx="13.5" ry="20.2"/>
		</g>
		<path id="Path_17" class="st13" d="M-1645.5-851.8l-1.4,226.1l100.2,57.9v-216L-1645.5-851.8z"/>
		<path id="Path_18" class="st9" d="M-1546.7-783.9v216l136.6-78.9v-206.3L-1546.7-783.9z"/>
		<path id="Path_19" class="st14" d="M-1546.7-774l-137-79.1l137-79.1l137,79.1L-1546.7-774z"/>
		<path id="Path_20" class="st13" d="M-1545.9-790l-112.1-65.6l111.5-64.4l112,64.7L-1545.9-790z"/>
		<path id="Path_21" class="st9" d="M-1546.9-905l99.1,57.2l13.3-7.5l-112.4-65.7l-111.1,64.4l14.8,8.6L-1546.9-905z"/>
		<path id="Path_22" class="st14" d="M-1624.6-757.8l24.5,14.2v-50.2l-24.5-14.2V-757.8z"/>
		<path id="Path_23" class="st11" d="M-1617.6-804v40l17.5,10.5v9.9l-24.5-14.2V-808L-1617.6-804z"/>
		<path id="Path_24" class="st14" d="M-1587.7-736.7l24.5,14.2v-50.2l-24.5-14.2V-736.7z"/>
		<path id="Path_25" class="st11" d="M-1580.7-782.9v40.1l17.5,10.4v9.9l-24.5-14.2V-787L-1580.7-782.9z"/>
		<path id="Path_26" class="st11" d="M-1657.7-607.3l-107.8-71.5c-6.7-3.9-12.2-14.3-12.2-23.3v-235.3c0-9,5.5-13.1,12.2-9.2
			l112.6,65c6.7,3.9,12.2,14.3,12.2,23.3v234.2c0,5.9-2.2,8.4-5.9,10.5L-1657.7-607.3z"/>
		<path id="Path_27" class="st14" d="M-1720-828.4c0,0-57.7,135-57.7,126l-9.5-238l14.2-7.5c2.1-1,4.7-0.8,7.5,0.9l112.6,65
			c3.3,1.9,6.3,5.4,8.5,9.5L-1720-828.4z"/>
		<path id="Path_28" class="st5" d="M-1664.2-608.1l-112.3-65c-6.7-3.9-11.9-14.3-11.9-23.3v-235.3c0-9,5.3-13.1,12.1-9.2l112.2,65
			c6.7,3.9,11.9,14.3,11.9,23.3v235.3C-1652.3-608.3-1657.5-604.2-1664.2-608.1z"/>
		<path id="Path_29" class="st11" d="M-1666.5-607.2l-112.3-65c-6.7-3.9-11.9-14.3-11.9-23.3v-235.3c0-9,5.3-13.1,12.1-9.2l112.2,65
			c6.7,3.9,11.9,14.3,11.9,23.3v235.3C-1654.6-607.5-1659.8-603.3-1666.5-607.2z"/>
		<path id="Path_30" class="st5" d="M-1665.9-862.5l-109.5-63.2c-1.8-1-4-0.4-5,1.3c-0.3,0.6-0.5,1.2-0.5,1.8v198.7l0,0v31.1
			c0,1.3,0.7,2.5,1.8,3.2l109.5,63.2c1.8,1,4,0.4,5-1.3c0.3-0.6,0.5-1.2,0.5-1.8v-229.8C-1664.1-860.6-1664.8-861.8-1665.9-862.5z"
			/>
		<g id="Group_5" transform="translate(-1680.883 -702.481)">
			<path id="Path_31" class="st15" d="M0,0"/>
		</g>
		<g id="Group_6" transform="translate(-1649.627 -835.612)">
			<path id="Path_32" class="st5" d="M2.7,16.7L2.7,16.7c-0.8,0.5-1.9,0.2-2.4-0.6C0,15.8,0,15.4,0,15V4.2c0.1-1.7,1.1-3.3,2.7-4
				l0,0C3.5-0.3,4.6,0,5.1,0.8C5.3,1.2,5.4,1.6,5.4,2v10.7C5.3,14.4,4.2,16,2.7,16.7z"/>
			<path id="Path_33" class="st16" d="M3.8,16.9L3.8,16.9c-0.8,0.5-1.9,0.2-2.4-0.6c-0.2-0.3-0.3-0.7-0.2-1.1V4.4
				c0.1-1.7,1.1-3.3,2.7-4l0,0C4.7-0.1,5.8,0.1,6.3,1c0.2,0.3,0.3,0.7,0.2,1.1v10.7C6.4,14.6,5.4,16.1,3.8,16.9z"/>
			<path id="Path_34" class="st5" d="M2.7,36.2L2.7,36.2c-0.8,0.5-1.9,0.2-2.4-0.6C0,35.3,0,34.9,0,34.5V23.8c0.1-1.7,1.1-3.3,2.7-4
				l0,0c0.8-0.5,1.9-0.2,2.4,0.6c0.2,0.3,0.3,0.7,0.2,1.1v10.7C5.3,33.9,4.2,35.5,2.7,36.2z"/>
			<path id="Path_35" class="st16" d="M3.8,36.4L3.8,36.4c-0.8,0.5-1.9,0.2-2.4-0.6c-0.2-0.3-0.3-0.7-0.2-1.1V23.9
				c0.1-1.7,1.1-3.3,2.7-4l0,0c0.8-0.5,1.9-0.2,2.4,0.6c0.2,0.3,0.3,0.7,0.2,1.1v10.7C6.4,34.1,5.4,35.6,3.8,36.4z"/>
		</g>
		<g id="Group_7" transform="translate(-1700.883 -676.716)">
			<path id="Path_36" class="st17" d="M0,0"/>
		</g>
		<g id="Group_8" transform="translate(-1819.858 -930.203)">
			<path id="Path_37" class="st5" d="M14.7,67.5L0,59l34.5-37.5L51,30.4L14.7,67.5z"/>
			<path id="Path_38" class="st18" d="M29.3,75.9l-14.7-8.5l34-36.9l16.4,8.9L29.3,75.9z"/>
			<path id="Path_39" class="st5" d="M44,84.4l-14.7-8.5l33.5-36.4l16.4,8.9L44,84.4z"/>
			<path id="Path_40" class="st18" d="M58.6,92.9L44,84.4l33.9-36.7l17,8.3L58.6,92.9z"/>
			<path id="Path_41" class="st5" d="M73.4,101.4l-14.7-8.5l35.9-38.9L110,65.1L73.4,101.4z"/>
			<path id="Path_42" class="st18" d="M88,109.8l-14.7-8.5l34.9-37l17.3,7.1L88,109.8z"/>
			<path id="Path_43" class="st5" d="M102.9,118.4L88,109.8l36.1-38.3l16.6,9.4L102.9,118.4z"/>
			<path id="Path_44" class="st18" d="M153.7,89.7L33.9,23.5V2.2L37,0l117.1,67.9L153.7,89.7z"/>
			<path id="Path_45" class="st19" d="M7.9,81.2l-1-0.6C3.1,78.5,0,72.6,0,67.6V59l14.7,8.5v8.6C14.7,81.1,11.6,83.4,7.9,81.2z"/>
			<path id="Path_46" class="st19" d="M37.2,98.2l-1-0.6c-3.8-2.2-6.8-8-6.8-13.1v-8.6L44,84.4V93C44,98,40.9,100.3,37.2,98.2z"/>
			<path id="Path_47" class="st19" d="M66.5,115.1l-1-0.6c-3.8-2.2-6.8-8-6.8-13.1v-8.6l14.7,8.5v8.6
				C73.3,114.9,70.3,117.3,66.5,115.1z"/>
			<path id="Path_48" class="st19" d="M95.9,131.8l-1-0.6c-3.8-2.2-6.8-8-6.8-13.1v-8.6l14.7,8.5v8.6
				C102.7,131.7,99.6,134,95.9,131.8z"/>
			<path id="Path_49" class="st18" d="M22.4,89.5l-1-0.6c-3.8-2.2-6.8-8-6.8-13.1v-8.6l14.7,8.5v8.6C29.2,89.4,26.1,91.7,22.4,89.5z
				"/>
			<path id="Path_50" class="st18" d="M51.9,106.6l-1-0.6C47.1,103.8,44,98,44,93v-8.6l14.7,8.5v8.6
				C58.7,106.5,55.6,108.8,51.9,106.6z"/>
			<path id="Path_51" class="st18" d="M81.4,123.6l-1-0.6c-3.8-2.2-6.8-8-6.8-13.1v-8.6l14.7,8.5v8.6
				C88.2,123.4,85.2,125.8,81.4,123.6z"/>
			<path id="Path_52" class="st20" d="M155.7,91l-16.3-8.8l-33.8,36l0.2,0.1v8.5c0,5,3.1,10.9,6.8,13.1v1.4c4.4,1.1,7.9-0.9,7.9-5.9
				v-7.5L155.7,91z"/>
			<path id="Path_53" class="st18" d="M117.5,126.8l-14.9-8.6l34.8-37.7l16.3,9.2L117.5,126.8z"/>
			<path id="Path_54" class="st18" d="M110.6,140.5l-1-0.6c-3.8-2.2-6.8-8-6.8-13.1v-8.6l14.7,8.5v8.6
				C117.5,140.4,114.4,142.7,110.6,140.5z"/>
			<path id="Path_55" class="st21" d="M152.3,70.5L33.9,2.2L37.1,0l118.6,68.5L152.3,70.5z"/>
			<path id="Path_56" class="st20" d="M155.7,91l-3.1-0.2l-0.4-20.3l3.4-2L155.7,91z"/>
		</g>
		<path id="Path_57" class="st11" d="M-1557.7-690.2l-72-40.4v-24.2l72.1,40.8L-1557.7-690.2z"/>
		<path id="Path_58" class="st22" d="M-1697.8-680.8l-59.2-34.5c-3.5-2-6.3-7.6-6.3-12.3v-64.8c0-4.7,2.9-6.9,6.3-4.9l59.2,34.5
			c3.5,2,6.3,7.6,6.3,12.3v64.8C-1691.4-681-1694.3-678.8-1697.8-680.8z"/>
		<g id="Group_11" transform="translate(-1755.977 -785.112)">
			<g id="Group_10" transform="translate(0 0)">
				<g id="Group_9">
					<path id="Path_59" class="st23" d="M37.1,40.4l-1.7-1l-5.1-3L12.6,26.1l6.9,28.8l10.6,6.2l5.1,3l10.6,6.2l1.7-4.7"/>
					<path id="Path_60" class="st23" d="M28.2,73.1c0,2.6-1.5,3.8-3.4,2.6s-3.4-4.1-3.4-6.7s1.5-3.8,3.4-2.6S28.2,70.5,28.2,73.1z"
						/>
					<path id="Path_61" class="st23" d="M44,82.3c0,2.6-1.5,3.8-3.4,2.6s-3.4-4.1-3.4-6.7s1.5-3.8,3.4-2.6S44,79.8,44,82.3z"/>
					<line id="Line_1" class="st23" x1="7.4" y1="4.3" x2="0" y2="0"/>
					<line id="Line_2" class="st23" x1="12.6" y1="26.1" x2="8.4" y2="8.7"/>
				</g>
			</g>
			
				<ellipse id="Ellipse_6" transform="matrix(0.9238 -0.3828 0.3828 0.9238 -15.1765 22.2372)" class="st3" cx="48.3" cy="49.3" rx="7.8" ry="13.9"/>
			<path id="Path_62" class="st24" d="M44.4,45.8l3.6,8.7l4.2-8.3"/>
			<line id="Line_3" class="st23" x1="15.7" y1="35.9" x2="34.1" y2="46.7"/>
			<line id="Line_4" class="st23" x1="20.9" y1="34.8" x2="25.3" y2="54.5"/>
			<line id="Line_5" class="st23" x1="28.4" y1="39.3" x2="32.9" y2="58.9"/>
			<line id="Line_6" class="st23" x1="17.1" y1="44.3" x2="35.5" y2="55.1"/>
		</g>
		<path id="Path_63" class="st11" d="M-1615.4-684.5v66.8l24.4,14.1v-0.1l5.8,3.4v-66.8L-1615.4-684.5z"/>
		<path id="Path_64" class="st5" d="M-1607.1-612.9l16,9.3v-0.1l5.8,3.4v-66.8l-21.9-12.6L-1607.1-612.9z"/>
		<path id="Path_65" class="st14" d="M-1589-651.2l-14.5-8.3v-16l14.5,8.3V-651.2z"/>
		<path id="Path_66" class="st14" d="M-1589-638l-14.5-8.3v-16l14.5,8.3V-638z"/>
		<path id="Path_67" class="st14" d="M-1604.7-633.2L-1604.7-633.2c-0.6-0.3-1-0.9-1-1.6v-4.6c0-0.6,0.5-0.8,1-0.5l0,0
			c0.6,0.3,1,0.9,1,1.6v4.6C-1603.6-633.1-1604.1-632.9-1604.7-633.2z"/>
		<path id="Path_68" class="st18" d="M-1525-668.4l-3.1,1.7l-15.5-13.2l-3.1-75.6l3.1-1.7l18.6,11.4V-668.4z"/>
		<path id="Path_69" class="st14" d="M-1427-675l-96.4,55.7l-0.4-113.2l96.4-55.7L-1427-675z"/>
		<path id="Path_70" class="st11" d="M-1523.9-637.9l82.5-46.3v-95.9l14-8.1l0.4,113.2l-96.4,55.7L-1523.9-637.9z"/>
		<path id="Path_71" class="st5" d="M-1494-668.7l-9.9,7.2l27.7-85.6l9.9-7.2L-1494-668.7z"/>
		<path id="Path_72" class="st5" d="M-1473.5-679.9l-9.9,7.2l27.7-85.6l9.9-7.2L-1473.5-679.9z"/>
		<path id="Path_73" class="st25" d="M-1780.1-702.8c0,0-11.1,6.4-6.1,14.2s12.7-11.6,12.5-11.8S-1780.1-702.8-1780.1-702.8z"/>
		<path id="Path_74" class="st25" d="M-1771-703.2c4.6,4.9,4.1,11.1,5.6,15.2c3.8,10.5,7.6,10.5,8.1,17.6s-8,5.5-12,0.9
			s-8.3-9.2-10.8-16C-1782.4-691.9-1773.9-696.6-1771-703.2z"/>
		<path id="Path_75" class="st26" d="M-1773.9-693.3c0,0,7.3,4.8,5.2,11.4c-2.1,6.6-20.3,9.4-15.2-0.1S-1773.9-693.3-1773.9-693.3z"
			/>
		<path id="Path_76" class="st3" d="M-1798.2-659.2c0.5-1.1,2-1.3,4.9-6.7c1.8-3.3,2-8.7,2.4-13.3c1-10.8,7.2-11.6,9.4-10.1
			s-4,11-4,11s1.9,5.8-3.2,15.6c-1.2,2.3-3.7,4.7-6.8,6.6C-1796.6-655.4-1798.2-659.2-1798.2-659.2z"/>
		<path id="Rectangle_1" class="st27" d="M-1801.6-655.4L-1801.6-655.4c-0.6-1.2-0.2-2.6,1-3.2l1.5-0.8c1.2-0.6,2.6-0.2,3.2,1l0,0
			c0.6,1.2,0.2,2.6-1,3.2l-1.5,0.8C-1799.6-653.8-1801-654.3-1801.6-655.4z"/>
		<g id="Group_16" transform="translate(-1822.003 -657.117)">
			<g id="Group_13" transform="translate(13.737 0)">
				<g id="Group_12">
					<path id="Path_77" class="st22" d="M9.5,8.4c1-2.1,1.6-4.2,2-6.5c0.2-2.3-2.5-2-4-1.6C5.6,0.8,4,1.9,2.9,3.5
						C1.7,5.2,0.2,7.2,0,9.4c0,0.5,0.7,0.5,0.7,0C0.9,7.6,2.1,6,3.1,4.5C3.9,3.1,5.1,2,6.6,1.3c0.9-0.4,1.8-0.5,2.8-0.5
						c0.4-0.1,0.8,0.1,1.1,0.4c0.3,0.4,0.3,0.3,0.3,0.7c0,0.4-0.1,0.9-0.2,1.3c-0.4,1.7-1,3.4-1.7,5C8.7,8.6,9.4,8.8,9.5,8.4
						L9.5,8.4z"/>
				</g>
			</g>
			<path id="Path_78" class="st28" d="M28.6,27.7L8.7,33l3.5-21.2l19.2-4.6L28.6,27.7z"/>
			<path id="Path_79" class="st29" d="M8.7,33l-3.7-7.5l5.7-16l1.6,2.3L8.7,33z"/>
			<path id="Path_80" class="st30" d="M31.4,7.3l-4.1-1.7l-0.8,2.9L31.4,7.3z"/>
			<path id="Path_81" class="st31" d="M9.6,8.1l17.7-2.5l-0.6,2.8l-14.5,3.5L9.6,8.1z"/>
			<path id="Path_82" class="st28" d="M4.9,25.5L0,24.3L7.4,7.7l3.2,1.9L4.9,25.5z"/>
			<path id="Path_83" class="st31" d="M7.4,7.7L27,2.8l0.3,2.8L13,10.9L7.4,7.7z"/>
			<path id="Path_84" class="st28" d="M8.6,33L0,24.3l4.9,1.2L8.6,33z"/>
			<path id="Path_85" class="st22" d="M25.1,12.1c-0.1,0.4,0.1,0.6,0.5,0.5c0.4-0.1,0.7-0.4,0.8-0.8c0.1-0.4-0.1-0.6-0.5-0.5
				C25.5,11.4,25.2,11.7,25.1,12.1z"/>
			<path id="Path_86" class="st22" d="M17.1,13.8c-0.1,0.4,0.1,0.6,0.5,0.5c0.4-0.1,0.7-0.4,0.8-0.8c0.1-0.4-0.1-0.6-0.5-0.5
				C17.5,13.1,17.2,13.4,17.1,13.8z"/>
			<path id="Path_87" class="st5" d="M27.3,5.6l4.1,1.7l-19.2,4.6l-1.6-2.3L11,9.5l1.4,1.9l18.3-4.2l-3.6-1.5L27.3,5.6z"/>
			<path id="Path_88" class="st5" d="M27.3,5.6c0-0.1-0.3-2.8-0.3-2.8L7.4,7.7l3.2,1.8L11,9.5L8,7.8l18.8-4.7l0.3,2.6L27.3,5.6z"/>
			<g id="Group_15" transform="translate(17.158 0.718)">
				<g id="Group_14">
					<path id="Path_89" class="st22" d="M8.7,10.8C9.1,8.1,9.1,5.4,9,2.7c-0.1-0.9-0.2-2-1-2.4C6.9-0.1,5.8,0,4.8,0.5
						c-2.1,0.9-3,3.1-3.6,5.2c-0.7,2.4-1.4,5-1.1,7.5c0.1,0.5,0.8,0.3,0.7-0.2C0.7,10.8,1,8.6,1.7,6.5c0.5-1.8,1.2-4.1,2.9-5.1
						c0.9-0.5,3-1.3,3.5,0.1c0.2,1,0.3,1.9,0.3,2.9c0,2.1-0.1,4.2-0.3,6.4C8,11.3,8.7,11.3,8.7,10.8L8.7,10.8z"/>
				</g>
			</g>
		</g>
		<path id="Path_90" class="st22" d="M-1792.5-593.4l7-6.4c1.4-0.5,2.9-0.6,4.3-0.4c0.6,0.1,1.1,0.6,1.1,1.3l0,1.3
			c0.1,1.9,0,2.2-1.3,2.9l-7.2,3.8c-1.3,0.6-2.8,0.6-4,0l-0.3-0.2C-1793.9-591.8-1793.7-592.8-1792.5-593.4z"/>
		<path id="Path_91" class="st27" d="M-1780.1-599.1c-0.2,2-3.7,2-4.7,0.4c-2.9-19.3-2-37-1.1-56.7l12.5-8.2
			C-1776.8-640.2-1781.2-617.4-1780.1-599.1z"/>
		<path id="Path_92" class="st22" d="M-1764.3-599.1l1.3-8.8c0.7-1.1,1.6-2,2.8-2.5c0.6-0.2,1.2,0,1.5,0.5l0.8,1.1
			c1.2,1.5,1.2,1.9,0.7,3l-2.9,6.8c-0.5,1.2-1.6,1.9-2.8,2l-0.3,0C-1764.3-597-1764.8-598-1764.3-599.1z"/>
		<path id="Path_93" class="st27" d="M-1759.3-610.1c0.6,1.3-1,4.2-2.8,2.9c-5.8-3.1-10.8-9.3-13.6-19.1c-2.5-8.8,8-18.3,8.4-7.9
			C-1766.9-624.4-1764.7-616-1759.3-610.1z"/>
		<path id="Path_94" class="st22" d="M-1766.9-656.5c3,4.2,0.2,16.9,3,30.8c0,0-10,8.6-24.7-4.5l1.3-29.4L-1766.9-656.5z"/>
		<path id="Path_95" class="st27" d="M-1764.7-643l0.6-0.2c1.1-0.4,1.7-1.5,1.3-2.6l-0.8-2.2c-0.4-1.1-1.5-1.7-2.6-1.3l-0.6,0.2
			c-1.1,0.4-1.7,1.5-1.3,2.6l0.8,2.2C-1767-643.2-1765.8-642.6-1764.7-643z"/>
		<path id="Path_96" class="st3" d="M-1787.2-659.5c-0.3-3.7-1.1-7.3-2.3-10.8c-2.2-5.8-0.1-8.5,3.3-13.6c1.8-2.6,2.9-5.9,5.2-6.1
			l2.1,0.6c1,0.3,1.9,0.7,2.9,1.1c9.7,5.1,11.7,6.2,11.2,12c0,3-1.7-0.2-2.2,1.8c-0.9,3.8-1.3,7.2,0.2,14c0.3,1.4-1.3,1.6-2.5,2.4
			C-1774.1-654.5-1785.3-655.4-1787.2-659.5z"/>
		<path id="Path_97" class="st2" d="M-1771.1-674.2l5.8,13l-6.6,7.5L-1771.1-674.2z"/>
		<path id="Path_98" class="st27" d="M-1776.7-684.4l-0.3,0c-1.2,0.1-2.2-0.8-2.2-2l-0.4-6.6c-0.1-1.2,0.8-2.2,2-2.2l0.3,0
			c1.2-0.1,2.2,0.8,2.2,2l1.3,6.2C-1773.7-685.7-1775.5-684.4-1776.7-684.4z"/>
		<path id="Path_99" class="st32" d="M-1779.4-688.9c1.9-0.1,3.6-1,4.6-2.6c0,0-1.8,4-4.3,4.4L-1779.4-688.9z"/>
		<path id="Path_100" class="st27" d="M-1774-702.1c-1-1.9-2.6-2.3-4.1-1.4c-1.4-0.7-3.2,0-4.5,2.2c-1.8,3-2.3,7.3-0.8,10
			c0.9,1.5,2.6,2.4,4.3,2.5c2.8,0.2,4.3-0.6,5.7-2.8C-1771.5-694.7-1772.4-699.4-1774-702.1z"/>
		<path id="Path_101" class="st25" d="M-1775.8-700.2c0,0-1.8,6.3,3.1,8.6c0,0,6.3-2.4,3.1-9.3c-2.8-6.1-9.5-2.9-9.5-2.9
			L-1775.8-700.2z"/>
		<path id="Path_102" class="st25" d="M-1773.8-696c-3.6-1.6-2.1-5.2-10.1-1.7c-1.9-0.2-1.3-1.8,0-3.5c1.7-2,3.4-3.9,6-4.4l0.6,0
			c3.8-0.3,7.3,2.3,8.2,6c0.1,0.3,0.1,0.6,0.2,0.9l-2.1-0.2C-1770.8-696.7-1771.6-696.2-1773.8-696z"/>
		<path id="Path_103" class="st27" d="M-1772.2-691.9c-0.3,0.8-1.1,1.3-2,1c0,0,0,0,0,0c-0.8-0.3-1.3-1.1-1-2c0,0,0,0,0,0
			c0.3-0.8,1.1-1.3,2-1c0,0,0,0,0,0C-1772.4-693.6-1771.9-692.7-1772.2-691.9C-1772.2-691.9-1772.2-691.9-1772.2-691.9z"/>
		<path id="Path_104" class="st3" d="M-1770.6-677.9c1.6,5.1,2.9,11.6,1.8,16.7l7.1,2.6c0,0,1.1-2,0.6-8.5
			c-0.4-4.8-1.9-9.5-4.4-13.6L-1770.6-677.9z"/>
		<path id="Path_105" class="st27" d="M-1759.7-672.4c-3.5,3.4-5.2,9.8-5.2,16.8c-0.3,0.8,0.4,8.7,0.4,8.7l-3.8,0
			c-1.1-4.1-1.9-8.3-2.5-12.5c-0.1-1.2,0-2.3,0.4-3.4l5.1-13.7L-1759.7-672.4z"/>
		<path id="Path_106" class="st9" d="M-1759.1-683.5c-2.6,2.1-5.3,4.8-8.3,10.7c-0.3,4.3,2,6.1,4.4,8.1l8.9-8.6l-3.2-6.7
			L-1759.1-683.5z"/>
		<path id="Path_107" class="st9" d="M-1766.9-583.8l7.7-4.5c1.4-0.2,2.8,0,4.1,0.5c0.5,0.2,0.9,0.8,0.8,1.4l-0.2,1.2
			c-0.3,1.8-0.5,2-1.7,2.4l-7.4,2.1c-1.3,0.3-2.7,0.1-3.7-0.8l-0.2-0.2C-1768.5-582.5-1768.1-583.4-1766.9-583.8z"/>
		<path id="Path_108" class="st33" d="M-1736.8-596c0.8,1.7-3.2,3.9-4,2.2l-2.7-5.5l4-2.2L-1736.8-596z"/>
		<path id="Path_109" class="st33" d="M-1754.7-587.3c-0.4,1.8-5,1-4.5-0.8l1.4-6l4.5,0.8L-1754.7-587.3z"/>
		<path id="Path_110" class="st34" d="M-1737.2-599.4c-1.3,1.9-4.2,3.2-5.6,2.3c-8.7-14.4-17.7-28.9-20.4-47.3l11.6-9
			C-1747.2-632.5-1744.1-613.8-1737.2-599.4z"/>
		<path id="Path_111" class="st34" d="M-1753.3-590.3c-1.9,1.6-5.1,0.9-5.8-0.7l4-59.1l16.3,3.7L-1753.3-590.3z"/>
		<path id="Path_112" class="st35" d="M-1752.4-638.1l-3.6,12.6l1.1-14.6c0.7,0.2,1.5,0.4,2.2,0.6L-1752.4-638.1z"/>
		<path id="Path_113" class="st9" d="M-1763.7-648.4c0.7-7.6,0.8-15.1,0.5-22.7c0.9-12.3,5.8-16.5,13.4-13.2l3.1,1.1
			c9,5.7,13.8,5.8,11.4,15.6l-3.1,21.6C-1739.2-634.9-1765.2-635.3-1763.7-648.4z"/>
		<path id="Path_114" class="st22" d="M-1741.2-668.6l2.9,17l0.4,1.7l1.2-8L-1741.2-668.6z"/>
		<path id="Path_115" class="st22" d="M-1752.4-685c0.4,0.7,0.8,1.3,1.4,1.8c0.6,0.3,8.5-2.8,8.1-9.3c-0.3-4.1-8.1-3.5-8.1-3.5
			L-1752.4-685z"/>
		<path id="Path_116" class="st27" d="M-1749.2-678.9l-0.4,0c-1.3,0.1-2.4-0.8-2.5-2.1l-0.7-7.2c-0.1-1.3,0.8-2.4,2.1-2.5l0.4,0
			c1.3-0.1,2.4,0.8,2.5,2.1l1.7,6.8C-1746-680.5-1747.9-679-1749.2-678.9z"/>
		<path id="Path_117" class="st32" d="M-1752.4-684.2c2,0.1,4-0.9,5.2-2.5c0,0-2.2,4.3-5,4.5L-1752.4-684.2z"/>
		
			<ellipse id="Ellipse_7" transform="matrix(0.106 -0.9944 0.9944 0.106 -879.7547 -2361.8459)" class="st27" cx="-1753.4" cy="-691.6" rx="7.2" ry="4.1"/>
		<path id="Path_118" class="st27" d="M-1747-687.1c-1.7,3-7.6,4.2-9.1,1.6c-1.5-2.6,0.7-8,2.4-11s4.3-3.4,5.9-0.8
			S-1745.3-690.2-1747-687.1z"/>
		<path id="Path_119" class="st22" d="M-1749.6-695.4c0,0-1.6,6.2,3.2,8.4c0,0,6.1-2.5,2.8-9.1c-2.9-5.9-9.3-2.6-9.3-2.6
			L-1749.6-695.4z"/>
		<path id="Path_120" class="st22" d="M-1757.5-692.2c0.9-1.8,2.6-3,4.5-3.3l-2.4-1.9C-1755.4-697.4-1758.1-697.2-1757.5-692.2z"/>
		<path id="Path_121" class="st22" d="M-1747.5-691.3c-0.9-1.6-3.2-2-6.8-1.2c-0.5,0.1-1.1,0.1-1.6-0.1c-2.4-0.9-2.3-4-2.3-4
			c-0.2-2.1,1.3-2.9,3.4-3.1l5.6-0.6c3.1-0.4,5.7,2.5,6,4.7l0.1,0.4C-1742.9-693.2-1745.3-691.6-1747.5-691.3z"/>
		<path id="Path_122" class="st27" d="M-1745.8-687.2c-0.4,0.7-1.3,1-2.1,0.6c-0.7-0.4-1-1.3-0.6-2.1c0.4-0.7,1.3-1,2.1-0.6
			C-1745.6-688.9-1745.4-687.9-1745.8-687.2C-1745.8-687.2-1745.8-687.2-1745.8-687.2z"/>
		<g id="Group_21" transform="translate(-1742.66 -641.468)">
			<g id="Group_18" transform="translate(9.634 0)">
				<g id="Group_17">
					<path id="Path_123" class="st22" d="M10,9c0.5-2.5,0.6-5,0.3-7.4C9.8-0.9,7.1,0.1,5.5,0.9C3.7,2,2.3,3.6,1.6,5.6
						c-0.9,2.1-1.9,4.7-1.5,7c0.1,0.5,0.8,0.3,0.8-0.2c-0.3-1.9,0.5-4,1.2-5.8C2.6,5,3.6,3.4,4.9,2.2c0.8-0.6,1.8-1.1,2.8-1.3
						C8.1,0.7,8.6,0.8,9,1c0.5,0.3,0.5,0.3,0.5,0.7c0.1,0.5,0.1,1,0.1,1.4c0,1.9-0.2,3.9-0.5,5.8C9.1,9.5,9.9,9.5,10,9L10,9z"/>
				</g>
			</g>
			<path id="Path_124" class="st28" d="M31.5,36.1L11.6,49.5L8.7,15.7L27.9,5.6L31.5,36.1z"/>
			<path id="Path_125" class="st29" d="M11.6,49.5l-6-6.9l0.9-28.8l2.3,2L11.6,49.5z"/>
			<path id="Path_126" class="st36" d="M27.9,5.6l-4.8-0.7l0,3.3L27.9,5.6z"/>
			<path id="Path_127" class="st31" d="M4.9,12.4l18.2-7.5l0.1,3.2L8.7,15.7L4.9,12.4z"/>
			<path id="Path_128" class="st28" d="M5.6,42.5l-5.6,0l2.5-29.9l4,1.1L5.6,42.5z"/>
			<path id="Path_129" class="st31" d="M2.5,12.6L22.1,2l1.1,2.9L9.4,14.5L2.5,12.6z"/>
			<path id="Path_130" class="st28" d="M11.6,49.5L0,42.5l5.6,0L11.6,49.5z"/>
			<path id="Path_131" class="st36" d="M22.6,12.4c0,0.4,0.3,0.6,0.6,0.4c0.4-0.2,0.6-0.6,0.6-1.1c0-0.4-0.3-0.6-0.6-0.4
				C22.8,11.6,22.6,12,22.6,12.4z"/>
			<path id="Path_132" class="st36" d="M14.5,16.4c0,0.4,0.3,0.6,0.6,0.4c0.4-0.2,0.6-0.6,0.6-1.1c0-0.4-0.3-0.6-0.6-0.4
				C14.7,15.6,14.5,16,14.5,16.4z"/>
			<path id="Path_133" class="st5" d="M23.1,4.9l4.8,0.7L8.7,15.7l-2.3-2l0.3-0.2l2.1,1.6l18.4-9.4L23,5.1L23.1,4.9z"/>
			<path id="Path_134" class="st5" d="M23.1,4.9L22,2L2.5,12.6l3.9,1.1l0.3-0.2l-3.6-1L21.9,2.4L23,5.1L23.1,4.9z"/>
			<g id="Group_20" transform="translate(13.742 0.553)">
				<g id="Group_19">
					<path id="Path_135" class="st22" d="M9.5,11.1c-0.4-3-1-5.9-2-8.7c-0.3-0.9-0.7-2-1.8-2.3C4.7-0.2,3.3,0.5,2.5,1.2
						c-2,1.5-2.4,4.2-2.5,6.5c-0.1,2.7-0.2,5.7,0.9,8.2c0.2,0.5,0.9,0.1,0.7-0.4c-0.9-2.2-0.8-4.7-0.8-7.1c0-2.1,0.1-4.7,1.7-6.2
						c0.8-0.8,2.9-2.2,3.8-0.8c0.5,1,0.9,2,1.1,3c0.6,2.3,1,4.6,1.4,6.9C8.8,11.8,9.6,11.6,9.5,11.1L9.5,11.1z"/>
				</g>
			</g>
		</g>
		<g id="Group_26" transform="translate(-1731.955 -641.462)">
			<g id="Group_23" transform="translate(2.917 0.595)">
				<g id="Group_22">
					<path id="Path_136" class="st16" d="M9.1,6.9c-1-2.3-2.4-4.4-4-6.3C3.3-1.2,1.7,1.3,0.8,2.8c-0.9,1.9-1.1,4.1-0.5,6.1
						c0.5,2.3,1.1,4.9,2.8,6.7c0.4,0.4,0.9-0.2,0.5-0.6c-1.4-1.4-1.8-3.6-2.3-5.5C0.7,7.8,0.6,6,1.1,4.3c0.3-1,0.9-1.9,1.6-2.7
						C3,1.1,3.1,1,3.7,0.9c0.5,0,0.5,0,0.8,0.3c0.3,0.3,0.6,0.7,0.9,1.1c1.1,1.6,2.1,3.3,2.9,5C8.7,7.8,9.3,7.4,9.1,6.9L9.1,6.9z"/>
				</g>
			</g>
			<path id="Path_137" class="st37" d="M31.9,17l-10,20.4l-15-18.2L16.9,0L31.9,17z"/>
			<path id="Path_138" class="st37" d="M21.9,37.4L13,35.2L3.9,18.9l3,0.3L21.9,37.4z"/>
			<path id="Path_139" class="st22" d="M16.9,0l-4.4,2.1l1.8,2.7L16.9,0z"/>
			<path id="Path_140" class="st9" d="M1.9,18.7L12.6,2.2l1.9,2.5L6.9,19.3L1.9,18.7z"/>
			<path id="Path_141" class="st9" d="M13,35.2l-4.6,3.2L0,20.3l3.9-1.4L13,35.2z"/>
			<path id="Path_142" class="st9" d="M0,20.3l10-19.8l2.5,1.7L6.7,17.9L0,20.3z"/>
			<path id="Path_143" class="st9" d="M21.9,37.4L8.4,38.3l4.6-3.2L21.9,37.4z"/>
			<path id="Path_144" class="st16" d="M16.4,8.7c0.1,0.2,0.3,0.3,0.5,0.2c0.1,0,0.2-0.1,0.2-0.3c0.2-0.4,0.1-0.9-0.1-1.3
				c-0.1-0.2-0.3-0.3-0.5-0.2c-0.1,0-0.2,0.1-0.2,0.3C16.1,7.8,16.2,8.3,16.4,8.7z"/>
			<path id="Path_145" class="st16" d="M12,16.6c0.1,0.2,0.3,0.3,0.5,0.2c0.1,0,0.2-0.1,0.2-0.3c0.2-0.4,0.1-0.9-0.1-1.3
				c-0.1-0.2-0.3-0.3-0.5-0.2c-0.1,0-0.2,0.1-0.2,0.3C11.7,15.7,11.8,16.2,12,16.6z"/>
			<path id="Path_146" class="st37" d="M12.6,2.2L16.9,0L6.9,19.2l-3-0.3l0.2-0.3l2.6,0.2l9.7-18.2l-3.8,1.9L12.6,2.2z"/>
			<path id="Path_147" class="st37" d="M12.6,2.2l-2.5-1.7L0,20.3l3.9-1.4L4,18.6l-3.5,1.2l9.6-19l2.4,1.6L12.6,2.2z"/>
			<g id="Group_25" transform="translate(4.87 0.579)">
				<g id="Group_24">
					<path id="Path_148" class="st16" d="M11.6,7.1C9.6,4.8,7.4,2.8,5.1,1C4.3,0.4,3.3-0.3,2.3,0.1C1.2,0.5,0.6,1.9,0.2,2.9
						c-0.8,2.4,0.4,4.8,1.7,6.7c1.5,2.3,3.1,4.8,5.4,6.3c0.4,0.3,0.8-0.4,0.3-0.7c-2-1.3-3.4-3.4-4.7-5.4C1.9,8.1,0.5,5.9,0.8,3.7
						C1,2.6,2,0.3,3.4,0.9c1,0.5,1.9,1.1,2.6,1.9c1.8,1.5,3.4,3.2,5,4.9C11.5,8,12,7.4,11.6,7.1L11.6,7.1z"/>
				</g>
			</g>
		</g>
		<path id="Rectangle_2" class="st27" d="M-1726.9-642.4L-1726.9-642.4c1.2-0.3,2.4,0.5,2.7,1.7l0.3,1.6c0.3,1.2-0.5,2.4-1.7,2.7
			l0,0c-1.2,0.3-2.4-0.5-2.7-1.7l-0.3-1.6C-1728.9-640.9-1728.1-642.1-1726.9-642.4z"/>
		<path id="Path_149" class="st27" d="M-1739.7-667.6c4.4,3,7.6,9.3,9.1,16.2c0.5,0.7,2.3,12.6,2.3,12.6l4.3-1.4
			c0,0-0.7-11.1-1.4-15.6c-0.2-1.2-0.6-2.4-1.2-3.4l-8.3-13.1L-1739.7-667.6z"/>
		<path id="Path_150" class="st9" d="M-1741.1-668.3l5.8,11.8c0.8,0.9,9.9-3.9,9-5.3c-0.2-0.2-6.6-14.5-12.3-16.6
			C-1743.3-680.1-1744.1-673.7-1741.1-668.3z"/>
		<path id="Path_151" class="st3" d="M-1771.8-659.6c0,0,5.7-0.3,7.9-4.5l0.8,5c0,0-0.3,5.6-10,2.8L-1771.8-659.6z"/>
		<path id="Rectangle_3" class="st27" d="M-1775.6-654.9L-1775.6-654.9c-0.6-1.2-0.2-2.6,1-3.2l1.5-0.8c1.2-0.6,2.6-0.2,3.2,1l0,0
			c0.6,1.2,0.2,2.6-1,3.2l-1.5,0.8C-1773.5-653.3-1775-653.7-1775.6-654.9z"/>
		<path id="Path_152" class="st27" d="M-1798.4-655L-1798.4-655c-0.5-0.2-0.7-0.8-0.5-1.3l0.5-1.1c0.2-0.5,0.8-0.7,1.3-0.5l0,0
			c0.5,0.2,0.7,0.8,0.5,1.3l-0.5,1.1C-1797.4-655-1797.9-654.8-1798.4-655z"/>
		<g id="Group_28" transform="translate(-1783.03 -693.349)">
			<g id="Group_27" transform="translate(0 0)">
				<path id="Path_153" class="st5" d="M0,0l3.7,0.7c0,0-1.4,1.9-2.4,1.6S0,0,0,0z"/>
			</g>
		</g>
		<g id="Group_30" transform="translate(-1755.964 -688.119)">
			<g id="Group_29" transform="translate(0 0)">
				<path id="Path_154" class="st5" d="M0,0l3.7,0.3c0,0-1.2,2.1-2.2,1.8S0,0,0,0z"/>
			</g>
		</g>
		<g id="Group_96" transform="translate(-1470.776 -700.188)">
			<g id="Group_93" transform="translate(0 0)">
				
					<ellipse id="Ellipse_8" transform="matrix(0.9998 -2.199468e-02 2.199468e-02 0.9998 -2.4714 0.489)" class="st8" cx="21" cy="112.6" rx="20.8" ry="10.3"/>
				<path id="Path_155" class="st27" d="M50.9,47.4c0,0-14.2-2.5-15-12.2l4.4-2.9c0,0-1.3,6,12.6,12.2L50.9,47.4z"/>
				<path id="Path_156" class="st2" d="M44.1,39.4c-1.1-2.1-0.6,1.1-4.4-10.4c-3.4-10.3-8.2-11.5-10.2-10s5,10.8,5,10.8
					s-1.2,10,5.7,13.3C41.4,43.6,44.1,39.4,44.1,39.4z"/>
				<path id="Path_157" class="st11" d="M36.7,113.1l-6.4-6.7c-1.3-0.6-2.8-0.8-4.2-0.7c-0.6,0.1-1.1,0.6-1.1,1.2l-0.1,1.3
					c-0.3,1.9-0.1,2.2,1.1,2.9l6.8,4.2c1.2,0.7,2.7,0.8,3.9,0.3l0.3-0.2C37.9,114.8,37.8,113.8,36.7,113.1z"/>
				<path id="Path_158" class="st27" d="M24.9,106.8c0.1,1.9,3.5,2.2,4.5,0.7c4-18.6,4.3-36,4.6-55.2l-11.7-8.8
					C24.3,66.6,27.2,89.1,24.9,106.8z"/>
				<path id="Path_159" class="st3" d="M34.8,48.1c0.4-3.6,1.2-7.1,2.3-10.5c2.2-5.6,0.2-8.3-3.1-13.3c-1.7-2.6-2.8-5.8-5-6l-2,0.5
					c-1,0.3-1.9,0.6-2.8,1.1c-9.5,4.9-11.5,6-11,11.6c0,2.9,1.7-0.2,2.1,1.7c0.8,3.7,1.2,7-0.4,13.6c-0.3,1.3,1.3,1.5,2.4,2.4
					C21.9,52.8,32.9,52,34.8,48.1z"/>
				<path id="Path_160" class="st2" d="M19.3,33.6l-5.8,12.6l6.3,7.4L19.3,33.6z"/>
				<path id="Path_161" class="st11" d="M7,106l0-8.5c-0.5-1.1-1.4-1.9-2.4-2.4c-0.6-0.2-1.2,0-1.5,0.5l-0.9,1
					c-1.4,1.5-1.4,1.8-1.1,2.9l1.9,6.5c0.3,1.1,1.3,1.9,2.5,2h0.3c0.8,0,1.4-0.6,1.4-1.4C7.1,106.4,7,106.2,7,106z"/>
				<path id="Path_162" class="st27" d="M3.5,95.5c-0.7,1.2,0.4,4,2.3,2.8c6.1-2.9,11.8-8.8,15.8-18.1c3.6-8.4-5.4-17.5-7.1-7.7
					C12.9,81.8,9.6,89.8,3.5,95.5z"/>
				<path id="Path_163" class="st22" d="M14.9,50.8c-3,4.1-0.4,16.4-3.3,30.1c0,0,7.8,9.7,22.3-2.9l1.3-28.7L14.9,50.8z"/>
				<path id="Path_164" class="st3" d="M35.3,45.8c0,2.4-13.7,6.1-20,0l-0.5,5.1c0,0,17.2,4.2,20.5-1.7L35.3,45.8z"/>
				
					<ellipse id="Ellipse_9" transform="matrix(0.1141 -0.9935 0.9935 0.1141 12.0125 26.7063)" class="st16" cx="21" cy="6.6" rx="6" ry="5.3"/>
				<path id="Path_165" class="st16" d="M26.8,18.9c-0.6,0.5-1.2,1-1.9,1.3c-0.6,0.1-7.5-5.4-5-11.6c1.6-3.9,9-0.9,9-0.9L26.8,18.9z
					"/>
				<path id="Path_166" class="st27" d="M24.6,24.1l0.3,0.1c1.1,0.2,2.2-0.6,2.4-1.7l1.1-6.3c0.2-1.1-0.6-2.2-1.7-2.4l-0.3-0.1
					c-1.1-0.2-2.2,0.6-2.4,1.7L22,21.3C21.9,22.5,23.5,23.9,24.6,24.1z"/>
				<path id="Path_167" class="st38" d="M27.8,19.9c-1.8-0.1-3.5-1-4.5-2.5c0,0,1.7,4,4.2,4.3L27.8,19.9z"/>
				<path id="Path_168" class="st27" d="M26.1,5.4c1.6-1.4,3.2-1.3,4.4,0c1.6-0.2,3,1.1,3.6,3.6c0.7,3.5-0.6,8-2.9,10.1
					c-1.6,1.4-3.3,1.3-4.4-0.1c-2.3,0.1-4.3-1.6-4.6-3.8C21.4,11.6,23.8,7.5,26.1,5.4z"/>
				<path id="Path_169" class="st16" d="M27.3,7.8c0,0-0.4,6.6-5.7,7.2c0,0-5.2-4.3,0.1-9.8c4.7-4.9,10,0.3,10,0.3L27.3,7.8z"/>
				<path id="Path_170" class="st16" d="M24,11.1c1.5-1.4,6.7-0.4,10.2,1.7c1.9,0.4,1.8-1.3,1.1-3.3C34.3,7,33.3,4.7,31,3.4
					l-0.6-0.2c-3.5-1.5-7.7-0.2-9.8,3c-0.2,0.3-0.3,0.5-0.4,0.8l2,0.5C21.3,9.5,21.9,10.2,24,11.1z"/>
				<path id="Path_171" class="st27" d="M21.2,15.9c0.2,0.8,1,1.4,1.9,1.2c0,0,0,0,0,0c0.8-0.2,1.4-1,1.2-1.9c0,0,0,0,0,0
					c-0.2-0.8-1-1.4-1.9-1.2c0,0,0,0,0,0C21.5,14.2,21,15,21.2,15.9z"/>
				<path id="Path_172" class="st8" d="M41.2,125l6.6-3.7c0.2-0.1,0.3-0.2,0.5-0.3l8.8-5c1.6-0.8,3.5-0.8,5.1,0l40.1,23.8
					c1.4,0.8,1.4,2.2,0,3l-6.6,3.7c-0.2,0.1-0.3,0.2-0.5,0.3l-8.8,5c-1.6,0.8-3.5,0.8-5.1,0L41.2,128
					C39.8,127.1,39.8,125.8,41.2,125z"/>
				<g id="Group_33" transform="translate(60.768 100.296)">
					<g id="Group_32" transform="translate(0 0)">
						<g id="Group_31">
							<path id="Path_173" class="st36" d="M41.9,32.7l-0.3-2.5L2.1,6l0.1-6l-2,1.2L0,7l0.5,0.3L41.9,32.7z"/>
						</g>
						<path id="Path_174" class="st36" d="M36.3,34.3c-0.1,2.7,1.3,5.2,3.6,6.6c2.2,1.2,4.1,0.1,4.3-2.4c0.1-2.7-1.3-5.2-3.6-6.6
							C38.3,30.8,36.4,31.9,36.3,34.3z"/>
						<path id="Path_175" class="st36" d="M39.7,37.6l0.2,0.1c0.7,0.4,1.6,0.5,1.6-0.3l0.7-5.4c0-0.9-0.5-1.7-1.3-2.2l-2.1-1.3
							c-0.7-0.4-1.3-0.2-1.3,0.6l0.7,6.4C38.4,36.4,38.9,37.2,39.7,37.6z"/>
					</g>
				</g>
				<path id="Path_176" class="st36" d="M102.4,119l-17.5,11.2L40.6,105l24.7-12.8L102.4,119z"/>
				<path id="Path_177" class="st36" d="M56.2,49.9l5.5,46.7l2.2-0.4l-5.6-45.4L56.2,49.9z"/>
				<g id="Group_47" transform="translate(56.877 56.649)">
					<g id="Group_46">
						<g id="Group_34" transform="translate(1.529 9.047)">
							<path id="Path_178" class="st36" d="M43.5,37l0.6-0.9L0.3,0L0,1.7L43.5,37z"/>
						</g>
						<g id="Group_35" transform="translate(3.427 20.899)">
							<path id="Path_179" class="st36" d="M40.8,30.2l0.6-1L0.2,0L0,2.1L40.8,30.2z"/>
						</g>
						<g id="Group_36" transform="translate(0 26.136)">
							<path id="Path_180" class="st36" d="M43.8,30.8l0.6-1L0.6,0L0,1L43.8,30.8z"/>
						</g>
						<g id="Group_37" transform="translate(7.656 8.056)">
							<path id="Path_181" class="st36" d="M5.8,35.3l1.1-0.1L1.1,0L0,0.1L5.8,35.3z"/>
						</g>
						<g id="Group_38" transform="translate(14.561 13.582)">
							<path id="Path_182" class="st36" d="M5.8,33.4l1.1-0.1L1.1,0L0,0.1L5.8,33.4z"/>
						</g>
						<g id="Group_39" transform="translate(21.913 20.38)">
							<path id="Path_183" class="st36" d="M2.8,28.4l1.2,0L1.2,0L0,0L2.8,28.4z"/>
						</g>
						<g id="Group_40" transform="translate(28.436 26.104)">
							<path id="Path_184" class="st36" d="M2.4,27.1l1.2,0L1.2,0L0,0L2.4,27.1z"/>
						</g>
						<g id="Group_41" transform="translate(34.803 31.784)">
							<path id="Path_185" class="st36" d="M1.8,25.2L3,25.3L1.2,0.1L0,0L1.8,25.2z"/>
						</g>
						<g id="Group_42" transform="translate(41.629 37.677)">
							<path id="Path_186" class="st36" d="M1.2,22.6L1.4,0.2L0.3,0L0,22.5L1.2,22.6z"/>
						</g>
						<g id="Group_45" transform="translate(0.15)">
							<g id="Group_44">
								<g id="Group_43">
									<path id="Path_187" class="st36" d="M4.5,39.1L0,0l47.2,40.9l-1.5,22.2L4.5,39.1z M1.6,4.5L2.8,35l41,24.4L45,41.7L1.6,4.5
										z"/>
								</g>
							</g>
						</g>
					</g>
				</g>
				<g id="Group_50" transform="translate(41.487 68.217)">
					<g id="Group_48" transform="translate(11.904)">
						<path id="Path_188" class="st11" d="M10.9,10c0.2-1.7,0.4-3.4,0.5-5.1c0-1.2,0.2-3-0.4-4c-0.8-1.4-2.8-0.6-4-0.1
							c-2.3,1-4.1,2.9-5,5.2C0.9,8.4-0.3,11.3,0.1,14c0,0.4,0.6,0.4,0.6,0c-0.3-2.1,0.5-4.2,1.2-6.2c0.6-2,1.7-3.9,3.2-5.3
							c1-0.8,2.2-1.4,3.4-1.7c2-0.5,2.3,1.1,2.4,2.7c0,2.2-0.2,4.3-0.5,6.5C10.2,10.3,10.8,10.3,10.9,10L10.9,10z"/>
					</g>
					<path id="Path_189" class="st3" d="M35.2,31.4L13,43.9l-2.3-26.4L32.3,6.2L35.2,31.4z"/>
					<path id="Path_190" class="st2" d="M13,44l-6.8-7.8l1.9-20.8l2.6,2.2L13,44z"/>
					<path id="Path_191" class="st3" d="M32.3,6.2l-5.4-0.8l0,3.7L32.3,6.2z"/>
					<path id="Path_192" class="st31" d="M6.5,13.8l20.4-8.4L27,9l-16.3,8.6L6.5,13.8z"/>
					<path id="Path_193" class="st3" d="M6.3,36.2l-6.3,0l3.7-22.1l4.4,1.2L6.3,36.2z"/>
					<path id="Path_194" class="st31" d="M3.7,14.1L25.7,2.2l1.2,3.2L11.5,16.2L3.7,14.1z"/>
					<path id="Path_195" class="st2" d="M13,44L0,36.2l6.3,0L13,44z"/>
					<path id="Path_196" class="st11" d="M26,13.6c0,0.5,0.3,0.6,0.7,0.4c0.4-0.3,0.7-0.7,0.7-1.2c0-0.5-0.3-0.6-0.7-0.4
						C26.3,12.6,26.1,13.1,26,13.6z"/>
					<path id="Path_197" class="st11" d="M17.2,18.3c0,0.5,0.3,0.6,0.7,0.4c0.4-0.3,0.7-0.7,0.7-1.2c0-0.5-0.3-0.6-0.7-0.4
						C17.5,17.4,17.2,17.8,17.2,18.3z"/>
					<path id="Path_198" class="st5" d="M26.9,5.4l5.4,0.8L10.7,17.6l-2.6-2.2l0.4-0.2l2.3,1.8L31.5,6.3l-4.7-0.7L26.9,5.4z"/>
					<path id="Path_199" class="st5" d="M26.9,5.4l-1.2-3.2L3.7,14.1l4.4,1.2l0.4-0.2l-4-1.1l21-11.4l1.2,3L26.9,5.4z"/>
					<g id="Group_49" transform="translate(16.45 0.737)">
						<path id="Path_200" class="st11" d="M10.4,12.3C9.8,8.8,9.4,5.2,8,1.9C7.1-0.4,5.5-0.4,3.5,0.8c-2.3,1.3-3,3.8-3.3,6.3
							c-0.3,3.4-0.4,7.2,0.8,10.4c0.1,0.3,0.7,0.2,0.6-0.2c-0.8-2.5-1.1-5.1-0.9-7.8c0-2.4,0.1-5.3,1.8-7.2C3.7,1,6-0.3,7.3,1.8
							C7.9,3,8.3,4.1,8.5,5.3c0.6,2.3,1,4.7,1.4,7.1C9.9,12.8,10.5,12.6,10.4,12.3L10.4,12.3z"/>
					</g>
				</g>
				<g id="Group_53" transform="translate(62.81 82.729)">
					<g id="Group_51" transform="translate(12.462 0)">
						<path id="Path_201" class="st16" d="M1,10C0.7,8,0.6,6.1,0.6,4.1c0-1.5-0.1-3.3,1.9-3.5c1-0.1,2.7,1,3.4,1.5
							c1.6,1.3,2.8,3.1,3.4,5.2c0.8,2.1,1.6,4.5,1.3,6.7c-0.1,0.4,0.5,0.5,0.6,0.2c0.4-2.7-0.6-5.7-1.7-8.1C8.7,3.8,7,2,4.8,0.9
							C3.6,0.3,1.4-0.7,0.5,0.8C-0.1,1.7,0,3.4,0,4.5C0,6.3,0.2,8.1,0.4,10C0.4,10.3,1,10.3,1,10L1,10z"/>
					</g>
					<path id="Path_202" class="st28" d="M0,31.2l22,12.9l2.8-26.3L3.4,6L0,31.2z"/>
					<path id="Path_203" class="st31" d="M22,44.1l6.9-7.7l-1.5-20.9l-2.6,2.2L22,44.1z"/>
					<path id="Path_204" class="st39" d="M3.4,6l5.4-0.7l0,3.7L3.4,6z"/>
					<path id="Path_205" class="st31" d="M29.1,14.1L8.9,5.3L8.6,8.9l16.1,8.9L29.1,14.1z"/>
					<path id="Path_206" class="st28" d="M28.9,36.5l6.3,0.1l-3.3-22.2l-4.5,1.1L28.9,36.5z"/>
					<path id="Path_207" class="st31" d="M31.8,14.5L10.1,2.1L8.8,5.3l15.2,11.1L31.8,14.5z"/>
					<path id="Path_208" class="st31" d="M22,44.1l13.2-7.5l-6.3-0.2L22,44.1z"/>
					<path id="Path_209" class="st16" d="M9.3,13.7c0,0.5-0.3,0.6-0.7,0.4c-0.4-0.3-0.7-0.7-0.7-1.2c0-0.5,0.3-0.6,0.7-0.4
						C9,12.8,9.3,13.2,9.3,13.7z"/>
					<path id="Path_210" class="st16" d="M18.3,18.4c0,0.5-0.3,0.6-0.7,0.4c-0.4-0.3-0.7-0.7-0.7-1.2c0-0.5,0.3-0.6,0.7-0.4
						C18,17.5,18.3,17.9,18.3,18.4z"/>
					<path id="Path_211" class="st5" d="M8.8,5.3L3.4,6l21.3,11.8l2.6-2.2L27,15.4l-2.3,1.8L4.2,6.2L9,5.6L8.8,5.3z"/>
					<path id="Path_212" class="st5" d="M8.8,5.3l1.3-3.2l21.7,12.4l-4.5,1.1L27,15.4l4.1-1L10.3,2.5L9,5.6L8.8,5.3z"/>
					<g id="Group_52" transform="translate(8.692 0.737)">
						<path id="Path_213" class="st16" d="M0.6,12.3C1,10,1.5,7.6,2.1,5.3c0.2-1.2,0.6-2.4,1.2-3.5c1.3-2,3.6-0.9,4.9,0.6
							c1.6,2,1.6,4.8,1.6,7.2c0.1,2.6-0.2,5.2-1.1,7.7c-0.1,0.3,0.4,0.5,0.6,0.2c1.3-3.1,1.3-6.8,1.1-10.1c-0.2-2.6-0.8-5.2-3.2-6.7
							C5.1-0.5,3.5-0.3,2.6,2C1.4,5.3,0.5,8.7,0,12.2C-0.1,12.5,0.5,12.7,0.6,12.3L0.6,12.3z"/>
					</g>
				</g>
				<g id="Group_55" transform="translate(37.039 55.37)">
					<g id="Group_54">
						<path id="Path_214" class="st36" d="M1,12.6L22,1.8L21,0L0,10.8L1,12.6z"/>
					</g>
				</g>
				<g id="Group_57" transform="translate(38.466 65.836)">
					<g id="Group_56">
						<path id="Path_215" class="st36" d="M1,12.6L22,1.8L21,0L0,10.8L1,12.6z"/>
					</g>
				</g>
				<path id="Path_216" class="st40" d="M42.3,104.4"/>
				<path id="Path_217" class="st40" d="M62.6,94.1"/>
				<path id="Path_218" class="st2" d="M45.8,44.3c0-0.8,0.8-1.5,1.6-1.4c0.3,0,0.5,0.1,0.7,0.2l9,5.7c0.8,0.5,1.3,1.4,1.4,2.3
					l0.2,2.2l-12.1-7.7C46,45.3,45.8,44.8,45.8,44.3L45.8,44.3z"/>
				<g id="Group_58" transform="translate(40.494 104.078)">
					<path id="Path_219" class="st34" d="M41.3,39.2l1.1-1.7l-39-23.9l-1.2-12L0,0l1.5,14.8L41.3,39.2z"/>
				</g>
				<g id="Group_59" transform="translate(35.893 62.602)">
					<path id="Path_220" class="st34" d="M0,0l4.6,41.3l2.2,1.8L2.2,0.9L0,0z"/>
				</g>
				
					<ellipse id="Ellipse_10" transform="matrix(0.8803 -0.4745 0.4745 0.8803 -60.5628 56.7695)" class="st22" cx="82.2" cy="148.4" rx="3.5" ry="5.3"/>
				<path id="Path_221" class="st34" d="M81.7,149.6l0.2,0.1c0.7,0.4,1.6,0.5,1.6-0.3l0.7-5.4c0-0.9-0.5-1.7-1.3-2.2l-2.1-1.3
					c-0.7-0.4-1.3-0.2-1.3,0.6l0.7,6.4C80.4,148.3,80.9,149.1,81.7,149.6z"/>
				
					<ellipse id="Ellipse_11" transform="matrix(0.8803 -0.4745 0.4745 0.8803 -53.8075 35.7286)" class="st22" cx="43.9" cy="124.5" rx="3.5" ry="5.3"/>
				<path id="Path_222" class="st34" d="M43.4,125.7l0.2,0.1c0.7,0.4,1.6,0.5,1.6-0.3l0.7-5.4c0-0.9-0.5-1.7-1.3-2.2l-2.1-1.3
					c-0.7-0.4-1.3-0.2-1.3,0.6l0.7,6.4C42.1,124.4,42.6,125.2,43.4,125.7z"/>
				<g id="Group_70" transform="translate(84.058 97.428)">
					<g id="Group_61" transform="translate(0 0)">
						<g id="Group_60">
							<path id="Path_223" class="st41" d="M0,33.9l19-11.8L20.5,0l-19,11.8L0,33.9z M17.3,21.1L2,30.5l1.2-17.7l15.2-9.5L17.3,21.1
								z"/>
						</g>
					</g>
					<g id="Group_63" transform="translate(1.657 7.347)">
						<g id="Group_62">
							<path id="Path_224" class="st41" d="M0.7,12.4L17.9,1l-0.7-1L0,11.4L0.7,12.4z"/>
						</g>
					</g>
					<g id="Group_64" transform="translate(1.186 14.409)">
						<path id="Path_225" class="st41" d="M0.7,12.4L17.9,1l-0.7-1L0,11.4L0.7,12.4z"/>
					</g>
					<g id="Group_66" transform="translate(14.138 5.094)">
						<g id="Group_65">
							<path id="Path_226" class="st41" d="M1.1,19.1L2,0.1L0.8,0L0,19L1.1,19.1z"/>
						</g>
					</g>
					<g id="Group_67" transform="translate(9.276 7.632)">
						<path id="Path_227" class="st41" d="M1.1,19.1L2,0.2L0.8,0L0,19L1.1,19.1z"/>
					</g>
					<g id="Group_69" transform="translate(4.614 10.104)">
						<g id="Group_68" transform="translate(0 0)">
							<path id="Path_228" class="st41" d="M1.1,20L2,0L0.8,0.9L0,19.9L1.1,20z"/>
						</g>
					</g>
				</g>
				<g id="Group_92" transform="translate(36.476 67.963)">
					<g id="Group_73" transform="translate(0 0)">
						<g id="Group_72">
							<g id="Group_71">
								<path id="Path_229" class="st34" d="M4.2,37.9L0,0l49.1,41.3l-1.5,22.1L4.2,37.9z M3.1,5.3l3.4,31.5l39.1,22.9l1.3-17.5
									L3.1,5.3z"/>
							</g>
						</g>
					</g>
					<g id="Group_75" transform="translate(7.968 8.332)">
						<g id="Group_74">
							<path id="Path_230" class="st34" d="M2.8,33.2l1.2,0L1.2,0L0,0L2.8,33.2z"/>
						</g>
					</g>
					<g id="Group_77" transform="translate(14.992 13.863)">
						<g id="Group_76">
							<path id="Path_231" class="st34" d="M1.3,30.5l1.2,0L1.2,0L0,0L1.3,30.5z"/>
						</g>
					</g>
					<g id="Group_79" transform="translate(21.904 20.371)">
						<g id="Group_78">
							<path id="Path_232" class="st34" d="M0.2,26.9l1.2,0L1.2,0L0,0L0.2,26.9z"/>
						</g>
					</g>
					<g id="Group_81" transform="translate(29.428 26.246)">
						<g id="Group_80">
							<path id="Path_233" class="st34" d="M0.2,26.2l1.2,0.1L1.2,0.2L0,0L0.2,26.2z"/>
						</g>
					</g>
					<g id="Group_83" transform="translate(36.424 32.12)">
						<g id="Group_82" transform="translate(0 0)">
							<path id="Path_234" class="st34" d="M0,24l1.2,0.1l0.2-24L0.2,0L0,24z"/>
						</g>
					</g>
					<g id="Group_85" transform="translate(42.469 37.939)">
						<g id="Group_84" transform="translate(0 0)">
							<path id="Path_235" class="st34" d="M1.2,22.4L1.5,0.2L0.4,0L0,22.2L1.2,22.4z"/>
						</g>
					</g>
					<g id="Group_87" transform="translate(1.943 12.764)">
						<g id="Group_86">
							<path id="Path_236" class="st34" d="M45.6,34.1l0.6-0.9L0.6,0L0,1L45.6,34.1z"/>
						</g>
					</g>
					<g id="Group_89" transform="translate(3.613 23.655)">
						<g id="Group_88">
							<path id="Path_237" class="st34" d="M43.4,28.2l0.5-1L0,0l0.1,1.6L43.4,28.2z"/>
						</g>
					</g>
					<g id="Group_91" transform="translate(4.071 30.443)">
						<g id="Group_90" transform="translate(0 0)">
							<path id="Path_238" class="st34" d="M42.8,27.2l0.5-1L0,0l0.2,1.9L42.8,27.2z"/>
						</g>
					</g>
				</g>
				<path id="Path_239" class="st2" d="M25.6,56.7c0-0.8,0.8-1.5,1.6-1.4c0.3,0,0.5,0.1,0.7,0.2l9,5.7c0.8,0.5,1.3,1.4,1.4,2.3
					l0.2,2.2l-12.1-7.7C25.8,57.8,25.5,57.2,25.6,56.7L25.6,56.7z"/>
				<path id="Path_240" class="st27" d="M27,59.4c0,0-11.7-2.2-13.3-11.7l3.3-3c0,0-0.5,6,11.3,11.8L27,59.4z"/>
				<path id="Path_241" class="st3" d="M19.3,29.8c-1.2,6.2-1.9,12.5-0.5,18.7l-2.9,3.9c0,0-5.1-1.6-5-9.6c0-5.7,1-11.3,3.2-16.5
					L19.3,29.8z"/>
				<path id="Rectangle_4" class="st27" d="M30.9,60.5L30.9,60.5c-0.7,1-2.2,1.3-3.2,0.5l-1.4-1c-1-0.7-1.3-2.2-0.5-3.2l0,0
					c0.7-1,2.2-1.3,3.2-0.5l1.4,1C31.4,58,31.6,59.5,30.9,60.5z"/>
				<path id="Rectangle_5" class="st27" d="M54.4,47.4L54.4,47.4c-0.7,1.1-2.1,1.4-3.2,0.7l-1.4-0.9c-1.1-0.7-1.4-2.1-0.7-3.2l0,0
					c0.7-1.1,2.1-1.4,3.2-0.7l1.4,0.9C54.8,44.9,55.1,46.3,54.4,47.4z"/>
			</g>
			<g id="Group_95" transform="translate(28.088 16.355)">
				<g id="Group_94">
					<path id="Path_242" class="st5" d="M3.8,0L0,0.1c0,0,1.1,2.1,2.1,1.9S3.8,0,3.8,0z"/>
				</g>
			</g>
		</g>
		<g id="Group_100" transform="translate(-1687.803 -598.32)">
			<path id="Path_243" class="st1" d="M55.9,4.8L115,38.6c1.6,0.9,1.4,2.5-0.4,3.6L78.7,63.4C76.9,64.4,66.6,64.9,65,64L13.3,29.9
				c-1.6-0.9-1.4-2.5,0.4-3.6L49.7,5.1C51.6,4,53.9,3.9,55.9,4.8z"/>
			<g id="Group_99" transform="translate(0 0)">
				<g id="Group_98">
					<path id="Path_244" class="st2" d="M104.1,40.1L104.1,40.1l-0.2-4.2L97,35.1L43.9,4.8c-2-0.9-4.3-0.8-6.2,0.3L3.8,25l-3.7-0.4
						l0.2,3.7v0l0,0c0.1,0.6,0.5,1.2,1.1,1.5l59.1,33.8c2,0.9,4.3,0.8,6.2-0.3l35.9-21.2C103.4,41.8,104,41,104.1,40.1L104.1,40.1
						L104.1,40.1z"/>
					<path id="Path_245" class="st3" d="M43.7,0.6l59.1,33.8c1.6,0.9,1.4,2.6-0.4,3.6L66.5,59.2c-1.9,1.1-4.2,1.2-6.2,0.3L1.1,25.7
						c-1.6-0.9-1.4-2.5,0.4-3.6L37.4,0.9C39.3-0.2,41.7-0.3,43.7,0.6z"/>
					<path id="Path_246" class="st5" d="M56.2,46.5l10.5,6c0.5,0.3,0.4,0.8-0.1,1.1l0,0c-0.6,0.3-1.3,0.4-2,0.1l-10.5-6
						c-0.5-0.3-0.4-0.8,0.1-1.1l0,0C54.8,46.2,55.6,46.2,56.2,46.5z"/>
					<path id="Path_247" class="st5" d="M42.3,4.4l10.1,5.7c0.6,0.4,0.6,1-0.2,1.4l0,0c-0.8,0.4-1.7,0.5-2.5,0.1L39.6,6
						c-0.6-0.4-0.6-1,0.2-1.4l0,0C40.6,4.1,41.5,4.1,42.3,4.4z"/>
					<path id="Path_248" class="st22" d="M34.7,9.2l8.6,4.9c1,0.6,0.9,1.6-0.3,2.3l-1.7,1c-1.2,0.7-2.7,0.8-4,0.2l-8.6-4.9
						c-1-0.6-0.9-1.6,0.3-2.3l1.7-1C32,8.7,33.5,8.7,34.7,9.2z"/>
					<path id="Path_249" class="st5" d="M12.8,22l26.3,15c0.5,0.3,0.4,0.8-0.1,1.1l0,0c-0.6,0.3-1.3,0.4-2,0.1l-26.3-15
						c-0.5-0.3-0.4-0.8,0.1-1.1l0,0C11.5,21.7,12.2,21.7,12.8,22z"/>
					<g id="Group_97" transform="translate(18.526 15.929)">
						<path id="Path_250" class="st5" d="M48.1,25.6l8.7,5c0.8,0.4,0.7,1.2-0.2,1.7l0,0c-0.9,0.5-2,0.6-3,0.1l-8.7-5
							c-0.8-0.4-0.7-1.2,0.2-1.7l0,0C46,25.3,47.1,25.2,48.1,25.6z"/>
						<path id="Path_251" class="st5" d="M33.3,17.2l8.7,5c0.8,0.4,0.7,1.2-0.2,1.7l0,0c-0.9,0.5-2,0.6-3,0.1l-8.7-5
							c-0.8-0.4-0.7-1.2,0.2-1.7l0,0C31.2,16.8,32.3,16.8,33.3,17.2z"/>
						<path id="Path_252" class="st5" d="M18.5,8.7l8.7,5c0.8,0.4,0.7,1.2-0.2,1.7l0,0c-0.9,0.5-2,0.6-3,0.1l-8.7-5
							c-0.8-0.4-0.7-1.2,0.2-1.7l0,0C16.4,8.4,17.5,8.3,18.5,8.7z"/>
						<path id="Path_253" class="st5" d="M3.7,0.3l8.7,5c0.8,0.4,0.7,1.2-0.2,1.7l0,0c-0.9,0.5-2,0.6-3,0.1l-8.7-5
							C-0.2,1.7-0.2,1,0.7,0.4l0,0C1.6-0.1,2.7-0.1,3.7,0.3z"/>
					</g>
					
						<ellipse id="Ellipse_12" transform="matrix(1 -2.146749e-03 2.146749e-03 1 -7.681634e-02 0.1854)" class="st5" cx="86.3" cy="35.9" rx="5.9" ry="3.4"/>
				</g>
				<path id="Path_254" class="st42" d="M101.8,38L65.9,59.2c-1.9,1.1-4.2,1.2-6.2,0.3L0.6,25.7"/>
			</g>
		</g>
		<path id="Path_255" class="st20" d="M-1441.8-789.7l-73.2,45.2l-2.6-1.8V-779l75.8-43.4l2.6,1.8L-1441.8-789.7z"/>
		<path id="Path_256" class="st18" d="M-1439.2-787.9l-75.8,43.4v-32.7l75.8-43.4V-787.9z"/>
		<g id="Group_101" transform="translate(-1494.916 -799.605)">
			<path id="Path_257" class="st5" d="M0,33.8l0.9-1.7c1,0.5,2.2,0.5,3.2-0.2c1.4-0.7,2.3-2,2.4-3.6c0-1.4-0.8-1.3-1.9-1.2l-1.7,0.1
				c-1.1,0.1-2.3-0.1-2.3-2.1c0.2-2.4,1.6-4.5,3.6-5.6c1-0.7,2.3-0.9,3.4-0.3l-0.8,1.5C6,20.4,5,20.5,4.2,21c-1.2,0.6-2,1.8-2.2,3.2
				c0,1.3,1,1.2,1.9,1.1l1.6-0.1C6.9,25.1,8,25.4,8,27.3c-0.2,2.6-1.7,4.8-3.9,6.1C2.4,34.3,1,34.4,0,33.8z"/>
			<path id="Path_258" class="st5" d="M10.3,16.3l1.5-0.8V21l5.4-3.1v-5.6l1.5-0.9v13.3l-1.5,0.9v-6.2l-5.4,3.1v6.2l-1.5,0.8V16.3z"
				/>
			<path id="Path_259" class="st5" d="M21.1,16.6c0-4.2,2-8,4.9-9.7s5-0.3,5,4c0,4.3-2,8.1-5,9.8S21.1,20.9,21.1,16.6z M29.4,11.8
				c0-3.3-1.4-4.6-3.4-3.4s-3.4,4-3.4,7.3c0,3.3,1.4,4.7,3.4,3.5S29.4,15.1,29.4,11.8L29.4,11.8z"/>
			<path id="Path_260" class="st5" d="M33.5,2.9L36.8,1c2.6-1.5,4.3-1.5,4.3,1.4c0,2.8-1.7,5.1-4.3,6.6l-1.9,1.1v5.3l-1.5,0.8
				L33.5,2.9z M36.6,7.7c2-1.2,3-2.6,3-4.5c0-1.9-1-2-3-0.8l-1.7,1v5.3L36.6,7.7z"/>
		</g>
		<g id="Group_102" transform="translate(-1579.218 -909.881)">
			<path id="Path_263" class="st8" d="M28.5,97.1l39.1,2.6L116.5,71L59.9,39.7L28.5,97.1z"/>
			<path id="Path_264" class="st43" d="M23,28c0,0-1.4-22.2,8-26.9c12.9-6.5,11.7,17.3,11.7,17.3"/>
			<path id="Path_265" class="st44" d="M76.7,69.4L28.5,97.1L23,39.6l46.7-25.2L76.7,69.4z"/>
			<path id="Path_266" class="st45" d="M28.5,97.1L13.6,80.3l3.7-45.5l5.6,4.8L28.5,97.1z"/>
			<path id="Path_267" class="st46" d="M69.7,14.5l-11.8-1.6v8L69.7,14.5z"/>
			<path id="Path_268" class="st2" d="M13.6,31.7l44.3-18.8l0.4,7.8L23,39.7L13.6,31.7z"/>
			<path id="Path_269" class="st3" d="M13.6,80.3L0,80.5l7.6-48.2l9.7,2.6L13.6,80.3z"/>
			<path id="Path_270" class="st2" d="M7.7,32.3L55.2,5.9l2.7,7L24.5,36.8L7.7,32.3z"/>
			<path id="Path_271" class="st3" d="M28.5,97.1L0,80.5l13.6-0.2L28.5,97.1z"/>
			
				<ellipse id="Ellipse_13" transform="matrix(0.5 -0.866 0.866 0.5 2.8729 65.6914)" class="st47" cx="58.3" cy="30.4" rx="2.2" ry="1.3"/>
			<path id="Path_272" class="st47" d="M37.1,41.3c0,1,0.7,1.4,1.6,0.9c0.9-0.6,1.5-1.6,1.6-2.7c0-1-0.7-1.4-1.6-0.9
				C37.7,39.2,37.1,40.2,37.1,41.3z"/>
			<path id="Path_273" class="st45" d="M57.9,12.9l11.8,1.6L23,39.7l-5.6-4.8l0.8-0.4l5.1,3.9l44.7-23.6l-10.3-1.4L57.9,12.9z"/>
			<path id="Path_274" class="st45" d="M57.9,12.9l-2.7-7L7.7,32.3l9.7,2.5l0.8-0.4l-8.8-2.3L54.9,6.8l2.7,6.6L57.9,12.9z"/>
			<path id="Path_275" class="st43" d="M38.6,40.4c0,0-1.4-22.2,8-26.9C59.5,7,58.3,30.8,58.3,30.8"/>
		</g>
		<path id="Path_276" class="st5" d="M-1514-872.4l-28.4,14.9c-0.5,0.3-0.9,0-0.9-0.7l0,0c0-0.7,0.4-1.3,0.9-1.6l28.4-14.9
			c0.5-0.3,0.9,0,0.9,0.7l0,0C-1513.1-873.3-1513.4-872.7-1514-872.4z"/>
		<path id="Path_277" class="st48" d="M-1528.1-666.7l-18.6-11.4v-77.3l18.6,11.4V-666.7z"/>
		<path id="Path_278" class="st48" d="M-1615.2-713.8l1.2-0.8l39.5,22.4l0.3,12.2h-1.8L-1615.2-713.8z"/>
		<path id="Path_279" class="st48" d="M-1587.6-663.5c1.2,0.4,2.4-0.3,2.8-1.4c0.1-0.3,0.1-0.6,0.1-0.9c0.2-3,0.5-6,0.5-6l10-8.2
			l-3.3-1.3l-7.5,4.8l-4,3.6L-1587.6-663.5z"/>
		<g id="Group_103" transform="translate(-1625.163 -707.896)">
			<path id="Path_280" class="st5" d="M10.5,18.1l-9.9-5.8L16.1,0l8.3,6.3L10.5,18.1z"/>
			<path id="Path_281" class="st18" d="M20.3,23.9l-9.9-5.8L25.3,5.5l10.8,5.7L20.3,23.9z"/>
			<path id="Path_282" class="st5" d="M30.2,29.7l-9.9-5.8l15.3-12.3l9.7,4.9L30.2,29.7z"/>
			<path id="Path_283" class="st18" d="M40,35.5l-9.9-5.8l14.4-13.6l4.4,11.9L40,35.5z"/>
			<path id="Path_284" class="st49" d="M4.7,26.7L4,26.3c-2.5-1.5-4.3-5.3-4-8.5l0.6-5.5l9.9,5.8l-0.6,5.5
				C9.6,26.8,7.3,28.2,4.7,26.7z"/>
			<path id="Path_285" class="st49" d="M24.4,38.3l-0.7-0.4c-2.5-1.5-4.3-5.3-4-8.5l0.6-5.5l9.9,5.8l-0.6,5.5
				C29.3,38.4,27,39.8,24.4,38.3z"/>
			<path id="Path_286" class="st18" d="M14.5,32.4L13.8,32c-2.5-1.5-4.3-5.3-4-8.5l0.6-5.5l9.9,5.8l-0.6,5.5
				C19.4,32.5,17,33.9,14.5,32.4z"/>
			<path id="Path_287" class="st18" d="M34.3,44.1l-0.7-0.4c-2.5-1.5-4.3-5.3-4-8.5l0.6-5.5l9.9,5.8L39.5,41
				C39.2,44.2,36.9,45.6,34.3,44.1z"/>
		</g>
		<path id="Path_288" class="st18" d="M-1576.1-680l-39.1-23.1l0-10.8l39,22.7L-1576.1-680z"/>
	</g>
	<rect id="Group_104-area" x="914.5" y="165.6" class="st50" width="671" height="437"/>
</g>
<g transform="translate(0.000000,717.000000) scale(0.100000,-0.100000)">
	<path class="st0" d="M5975.5,6670.7c-1.4-0.2-6.1-0.7-10.4-1.1c-38.9-4.2-78.7-20.6-110.8-45.8c-9-7.1-23.7-21.5-31.8-31.1
		c-15.3-18.3-29.2-43-36.2-64.7c-1.1-3.5-2.4-6.2-2.8-6.2s-2.3,0.8-4.2,1.8c-23.2,11.7-54.5,8.7-76-7.4
		c-5.2-3.9-13.6-12.9-17.4-18.8c-7.3-11.1-11.2-22.7-12.1-35.5c-0.2-3.8-0.7-7-0.9-7s-5,0.7-10.5,1.5c-53.3,8-107.9-7.3-142.5-40
		c-24.1-22.7-35.6-52.7-31.5-82.2c3.1-22.6,16.4-45.9,35.9-62.3c31.5-26.8,73.9-40.1,120.7-37.8c24.3,1.2,47,6.8,67.7,16.8l8.3,3.9
		l2.5-6.1c13.5-34.1,43.1-59,79.6-67c9.7-2.2,35-2,44.3,0.2c20.8,5.1,37.5,14.1,51.8,27.9l7.3,7.1l6-2.8c34.7-16,77-17.4,112.5-3.8
		c8.9,3.5,22.5,10.7,28.9,15.4c2.8,2,5.3,3.7,5.5,3.7c0.3,0,3.2-2.6,6.5-5.9c27.8-26.8,68.2-43.8,109.4-45.8
		c40.5-2,76.9,7.7,109.4,29.5c9.8,6.5,22.7,17.7,29.5,25.2c4.1,4.7,13.6,16.9,15.4,19.8c0.4,0.6,2.7,0.8,7.2,0.5
		c16.7-1.1,32.4,2,46.7,9c35.5,17.6,54.5,56,46.9,94.6c-1.6,7.9-3.6,13.5-7.7,21.8c-12.7,25.1-37.2,42.6-65.8,47.1
		c-9.3,1.4-24.2,0.9-32.6-1.2l-5.8-1.4l-7.2,7.5c-25.5,26.6-60.8,44.7-97.8,50.2l-6.5,1l-0.4,3.5c-3.2,25.6-8.7,44.7-19.3,66.6
		c-10.3,21.3-22.8,39-39.4,55.6c-33.9,34.1-77.4,55.5-126.2,62.3C6013.6,6670.4,5981.4,6671.3,5975.5,6670.7z"/>
</g>
<g transform="translate(0.000000,717.000000) scale(0.100000,-0.100000)">
	<path class="st0" d="M695.5,7033.6c-1.4-0.2-6.1-0.7-10.4-1.1c-38.9-4.2-78.7-20.6-110.8-45.8c-9-7.1-23.7-21.5-31.8-31.1
		c-15.3-18.3-29.2-43-36.2-64.7c-1.1-3.5-2.4-6.2-2.8-6.2s-2.3,0.8-4.2,1.8c-23.2,11.7-54.5,8.7-76-7.4
		c-5.2-3.9-13.6-12.9-17.4-18.8c-7.3-11.1-11.2-22.7-12.1-35.5c-0.2-3.8-0.7-7-0.9-7c-0.2,0-5,0.7-10.5,1.5
		c-53.3,8-107.9-7.3-142.5-40c-24.1-22.7-35.6-52.7-31.5-82.2c3.1-22.6,16.4-45.9,35.9-62.3c31.5-26.8,73.9-40.1,120.7-37.8
		c24.3,1.2,47,6.8,67.7,16.8l8.3,3.9l2.5-6.1c13.5-34.1,43.1-59,79.6-67c9.7-2.2,35-2,44.3,0.2c20.8,5.1,37.5,14.1,51.8,27.9
		l7.3,7.1l6-2.8c34.7-16,77-17.4,112.5-3.8c8.9,3.5,22.5,10.7,28.9,15.4c2.8,2,5.3,3.7,5.5,3.7c0.3,0,3.2-2.6,6.5-5.9
		c27.8-26.8,68.2-43.8,109.4-45.8c40.5-2,76.9,7.7,109.4,29.5c9.8,6.5,22.7,17.7,29.5,25.2c4.1,4.7,13.6,16.9,15.4,19.8
		c0.4,0.6,2.7,0.8,7.2,0.5c16.7-1.1,32.4,2,46.7,9c35.5,17.6,54.5,56,46.9,94.6c-1.6,7.9-3.6,13.5-7.7,21.8
		c-12.7,25.1-37.2,42.6-65.8,47.1c-9.3,1.4-24.2,0.9-32.6-1.2l-5.8-1.4l-7.2,7.5c-25.5,26.6-60.8,44.7-97.8,50.2l-6.5,1l-0.4,3.5
		c-3.2,25.6-8.7,44.7-19.3,66.6c-10.3,21.3-22.8,39-39.4,55.6c-33.9,34.1-77.4,55.5-126.2,62.3
		C733.6,7033.3,701.4,7034.3,695.5,7033.6z"/>
</g>
<g transform="translate(0.000000,717.000000) scale(0.100000,-0.100000)">
	<path class="st0" d="M6515.3,6110.5c-1.4-0.1-6.1-0.7-10.4-1.1c-38.9-4.2-78.7-20.6-110.8-45.8c-9-7.1-23.7-21.5-31.8-31.1
		c-15.3-18.3-29.2-43-36.2-64.7c-1.1-3.5-2.4-6.2-2.8-6.2s-2.3,0.8-4.2,1.8c-23.2,11.7-54.5,8.7-76-7.4
		c-5.2-3.9-13.6-12.9-17.4-18.8c-7.3-11.1-11.2-22.7-12.1-35.5c-0.2-3.8-0.7-7-0.9-7s-5,0.7-10.5,1.5c-53.3,8-107.9-7.3-142.5-40
		c-24.1-22.7-35.6-52.7-31.5-82.2c3.1-22.6,16.4-45.9,35.9-62.3c31.5-26.8,73.9-40.1,120.7-37.8c24.3,1.2,47,6.8,67.7,16.8l8.3,3.9
		l2.5-6.1c13.5-34.1,43.1-59,79.6-67c9.7-2.2,35-2,44.3,0.2c20.8,5.1,37.5,14.1,51.8,27.9l7.3,7.1l6-2.8c34.7-16,77-17.4,112.5-3.8
		c8.9,3.5,22.5,10.7,28.9,15.4c2.8,2,5.3,3.7,5.5,3.7c0.3,0,3.2-2.6,6.5-5.9c27.8-26.8,68.2-43.8,109.4-45.8
		c40.5-2,76.9,7.7,109.4,29.5c9.8,6.5,22.7,17.7,29.5,25.2c4.1,4.7,13.6,16.9,15.4,19.8c0.4,0.6,2.7,0.8,7.2,0.5
		c16.7-1.1,32.4,2,46.7,9c35.5,17.6,54.5,56,46.9,94.6c-1.6,7.9-3.6,13.5-7.7,21.8c-12.7,25.1-37.2,42.6-65.8,47.1
		c-9.3,1.4-24.2,0.9-32.6-1.2l-5.8-1.4l-7.2,7.5c-25.5,26.6-60.8,44.7-97.8,50.2l-6.5,1l-0.4,3.5c-3.2,25.6-8.7,44.7-19.3,66.6
		c-10.3,21.3-22.8,39-39.4,55.6c-33.9,34.1-77.4,55.5-126.2,62.3C6553.4,6110.2,6521.3,6111.2,6515.3,6110.5z"/>
</g>
<g transform="translate(0.000000,717.000000) scale(0.100000,-0.100000)">
	<path class="st0" d="M1303.9,5731.5c-0.6-0.1-2.6-0.3-4.5-0.5c-16.8-1.8-33.9-8.9-47.8-19.7c-3.9-3-10.2-9.3-13.7-13.4
		c-6.6-7.9-12.6-18.5-15.6-27.9c-0.5-1.5-1-2.7-1.2-2.7c-0.2,0-1,0.4-1.8,0.8c-10,5-23.5,3.8-32.8-3.2c-2.2-1.7-5.9-5.6-7.5-8.1
		c-3.1-4.8-4.8-9.8-5.2-15.3c-0.1-1.7-0.3-3-0.4-3s-2.1,0.3-4.5,0.6c-23,3.4-46.5-3.1-61.4-17.2c-10.4-9.8-15.4-22.7-13.6-35.4
		c1.3-9.7,7.1-19.8,15.5-26.9c13.6-11.6,31.9-17.3,52-16.3c10.5,0.5,20.3,2.9,29.2,7.3l3.6,1.7l1.1-2.6
		c5.8-14.7,18.6-25.4,34.3-28.9c4.2-0.9,15.1-0.9,19.1,0.1c8.9,2.2,16.2,6.1,22.3,12l3.1,3l2.6-1.2c14.9-6.9,33.2-7.5,48.5-1.6
		c3.8,1.5,9.7,4.6,12.5,6.6c1.2,0.9,2.3,1.6,2.4,1.6c0.1,0,1.4-1.1,2.8-2.5c12-11.6,29.4-18.9,47.2-19.7
		c17.5-0.9,33.2,3.3,47.1,12.7c4.2,2.8,9.8,7.6,12.7,10.9c1.8,2,5.9,7.3,6.6,8.5c0.2,0.3,1.2,0.3,3.1,0.2c7.2-0.5,14,0.8,20.1,3.9
		c15.3,7.6,23.5,24.1,20.2,40.8c-0.7,3.4-1.5,5.8-3.3,9.4c-5.5,10.8-16,18.4-28.3,20.3c-4,0.6-10.4,0.4-14-0.5l-2.5-0.6l-3.1,3.2
		c-11,11.5-26.2,19.3-42.1,21.6l-2.8,0.4l-0.2,1.5c-1.4,11-3.8,19.3-8.3,28.7c-4.5,9.2-9.8,16.8-17,24
		c-14.6,14.7-33.3,23.9-54.4,26.9C1320.4,5731.4,1306.5,5731.8,1303.9,5731.5z"/>
</g>
</svg>
